<svg width="115" height="103" viewBox="0 0 115 103" fill="none" xmlns="http://www.w3.org/2000/svg">
<path d="M88.1373 19.486C86.5118 18.0025 83.8764 18.0025 82.2506 19.486L70.7139 30.0153C67.3117 33.1203 62.6972 34.8647 57.8859 34.8647C53.0745 34.8647 48.46 33.1203 45.0578 30.0153L33.4456 19.4173C31.8201 17.9338 29.1847 17.9338 27.5589 19.4173C25.9335 20.9008 25.9335 23.306 27.5589 24.7895L45.4685 41.1348V88.5075C45.4685 91.1921 47.853 93.3685 50.7947 93.3685C53.7361 93.3685 56.1208 91.1923 56.1208 88.5075V66.8055C56.1208 66.0719 56.7787 65.449 57.5823 65.4626C58.3618 65.476 58.989 66.0566 58.989 66.7712V88.5073C58.989 91.1918 61.3735 93.3683 64.3152 93.3683C67.2566 93.3683 69.6414 91.1921 69.6414 88.5073V41.7388L88.1375 24.8582C89.7627 23.3747 89.7627 20.9695 88.1373 19.486Z" fill="white"/>
<ellipse cx="13.7655" cy="13.4676" rx="13.7655" ry="13.4676" transform="matrix(0.736114 -0.676858 0.736114 0.676858 37.4609 21.1855)" fill="white"/>
<path d="M88.2709 47.9613V47.959H72.6758V88.8449C72.6758 90.3194 73.9536 91.5145 75.5301 91.5145C77.1064 91.5145 78.3845 90.3194 78.3845 88.8449V70.8327C78.3845 70.0798 79.0032 69.4318 79.8073 69.3965C80.6659 69.3587 81.3745 69.9987 81.3745 70.7933V88.7893C81.3745 90.244 82.5939 91.4735 84.1485 91.5134C85.7615 91.5549 87.0829 90.3442 87.0829 88.8449V54.5823C87.0829 54.3014 87.3263 54.0738 87.6266 54.0738C87.927 54.0738 88.1703 54.3014 88.1703 54.5823V64.8183C88.1703 66.0821 89.2657 67.1066 90.6169 67.1066C91.9681 67.1066 93.0635 66.0821 93.0635 64.8183V52.5353C93.0632 50.0395 90.9267 48.0116 88.2709 47.9613Z" fill="white"/>
<ellipse cx="11.0527" cy="10.9785" rx="11.0527" ry="10.9785" transform="matrix(0.736114 -0.676858 0.736114 0.676858 66.1875 38.8281)" fill="white"/>
<path d="M28.6131 47.959H27.4251V47.9613C24.7696 48.0116 22.6328 50.0395 22.6328 52.5353V64.8183C22.6328 66.0821 23.7282 67.1066 25.0794 67.1066C26.4306 67.1066 27.526 66.0821 27.526 64.8183V54.5823C27.526 54.3014 27.7693 54.0738 28.0697 54.0738C28.37 54.0738 28.6133 54.3014 28.6133 54.5823V88.8449C28.6133 90.3442 29.9348 91.5549 31.5478 91.5134C33.1024 91.4735 34.3218 90.244 34.3218 88.7893V70.7933C34.3218 69.9987 35.0306 69.3587 35.889 69.3965C36.6931 69.4318 37.3118 70.0798 37.3118 70.8327V88.8449C37.3118 90.3194 38.5897 91.5145 40.1662 91.5145C41.7424 91.5145 43.0205 90.3194 43.0205 88.8449V47.959H28.6131Z" fill="white"/>
<ellipse cx="10.5419" cy="9.99512" rx="10.5419" ry="9.99512" transform="matrix(0.736114 -0.676858 0.736114 0.676858 18 38.1348)" fill="white"/>
</svg>
