<svg width="316" height="292" viewBox="0 0 316 292" fill="none" xmlns="http://www.w3.org/2000/svg">
<rect width="316" height="292" rx="25" fill="#02F8B2" fill-opacity="0.21"/>
<path d="M47.6073 206.727C49.1672 207.213 50.1599 208.55 50.1599 210.171C50.1599 212.582 48.3771 214 45.3586 214H39.0583V199.819H45.3586C47.972 199.819 49.6737 201.257 49.6737 203.506C49.6737 204.985 48.8836 206.221 47.6073 206.727ZM45.3991 200.954H40.2535V206.201H45.3991C47.3439 206.201 48.4987 205.228 48.4987 203.587C48.4987 201.946 47.3237 200.954 45.3991 200.954ZM40.2535 212.866H45.4599C47.6478 212.866 48.9646 211.832 48.9646 210.07C48.9646 208.368 47.6276 207.315 45.4599 207.315H40.2535V212.866ZM53.9145 207.416H57.3381C59.445 207.416 60.8023 208.611 60.8023 210.698C60.8023 212.886 59.4247 214 57.3381 214H52.7597V203.992H53.9145V207.416ZM63.132 214V203.992H64.2868V214H63.132ZM53.8942 212.947H57.1558C58.7157 212.947 59.6476 212.217 59.6476 210.698C59.6476 209.219 58.7562 208.469 57.1558 208.469H53.8942V212.947ZM72.2997 204.215C73.7988 204.215 75.0143 204.661 75.926 205.573C76.8376 206.484 77.2833 207.679 77.2833 209.179C77.2833 210.657 76.7971 211.873 75.8449 212.784C74.8928 213.716 73.6368 214.182 72.0769 214.182C70.4765 214.182 69.2205 213.676 68.2886 212.683C67.3364 211.691 66.8705 210.333 66.8705 208.632V207.538C66.8705 202.979 68.633 200.812 72.867 200.245C73.7988 200.123 74.4876 200.001 74.9536 199.88C75.3993 199.758 75.8652 199.576 76.3311 199.313L76.8376 200.285C76.3311 200.589 75.8044 200.812 75.298 200.954C74.7712 201.116 74.0217 201.257 73.0695 201.379C71.3476 201.602 70.0916 202.088 69.342 202.838C68.5722 203.587 68.1265 204.803 67.9847 206.444C68.8761 204.965 70.3144 204.215 72.2997 204.215ZM69.1799 212.015C69.9295 212.744 70.9019 213.109 72.0971 213.109C73.2924 213.109 74.2648 212.744 75.0143 212.015C75.7639 211.306 76.1286 210.353 76.1286 209.179C76.1286 206.808 74.5281 205.248 72.0971 205.248C69.6661 205.248 68.0657 206.808 68.0657 209.179C68.0657 210.353 68.4304 211.306 69.1799 212.015ZM84.239 203.81C85.88 203.81 87.1765 204.316 88.1084 205.35C89.02 206.383 89.4252 207.76 89.2834 209.442H80.3697C80.552 211.711 82.0714 213.129 84.3403 213.129C85.7382 213.129 87.1765 212.541 87.845 211.65L88.6351 212.339C87.683 213.534 86.0825 214.223 84.3201 214.223C82.8007 214.223 81.5852 213.737 80.633 212.764C79.6809 211.792 79.1947 210.536 79.1947 208.996C79.1947 207.477 79.6606 206.221 80.5925 205.248C81.5244 204.296 82.7399 203.81 84.239 203.81ZM84.2593 204.863C82.0714 204.863 80.5925 206.241 80.3697 208.429H88.1692C88.1489 206.302 86.589 204.863 84.2593 204.863ZM96.92 203.81C98.3988 203.81 99.5941 204.296 100.546 205.248C101.478 206.221 101.944 207.477 101.944 208.996C101.944 210.516 101.478 211.772 100.546 212.724C99.5941 213.696 98.3988 214.182 96.92 214.182C95.1575 214.182 93.6584 213.413 92.8683 212.136V218.821H91.7136V203.992H92.767L92.7873 205.978C93.5368 204.661 95.0765 203.81 96.92 203.81ZM96.8187 213.109C97.9937 213.109 98.9458 212.724 99.6954 211.974C100.425 211.225 100.789 210.232 100.789 208.996C100.789 207.76 100.425 206.768 99.6954 206.018C98.9458 205.269 97.9937 204.884 96.8187 204.884C95.664 204.884 94.7118 205.269 93.9825 206.018C93.233 206.768 92.8683 207.76 92.8683 208.996C92.8683 210.232 93.233 211.225 93.9825 211.974C94.7118 212.724 95.664 213.109 96.8187 213.109ZM105.648 212.015L112.374 203.992H113.306V214H112.151V208.206L112.171 205.937L105.466 214H104.514V203.992H105.668V209.28L105.648 212.015ZM121.864 214V203.992H130.656V214H129.501V205.066H123.018V214H121.864ZM139.099 203.81C140.577 203.81 141.773 204.296 142.725 205.248C143.657 206.221 144.123 207.477 144.123 208.996C144.123 210.516 143.657 211.772 142.725 212.724C141.773 213.696 140.577 214.182 139.099 214.182C137.336 214.182 135.837 213.413 135.047 212.136V218.821H133.892V203.992H134.946L134.966 205.978C135.715 204.661 137.255 203.81 139.099 203.81ZM138.997 213.109C140.172 213.109 141.124 212.724 141.874 211.974C142.603 211.225 142.968 210.232 142.968 208.996C142.968 207.76 142.603 206.768 141.874 206.018C141.124 205.269 140.172 204.884 138.997 204.884C137.843 204.884 136.89 205.269 136.161 206.018C135.412 206.768 135.047 207.76 135.047 208.996C135.047 210.232 135.412 211.225 136.161 211.974C136.89 212.724 137.843 213.109 138.997 213.109ZM151.189 214.203C149.67 214.203 148.414 213.716 147.462 212.724C146.51 211.751 146.024 210.516 146.024 208.996C146.024 207.477 146.51 206.241 147.462 205.248C148.414 204.276 149.67 203.79 151.189 203.79C152.709 203.79 153.945 204.276 154.917 205.248C155.869 206.241 156.355 207.477 156.355 208.996C156.355 210.516 155.869 211.751 154.917 212.724C153.945 213.716 152.709 214.203 151.189 214.203ZM151.189 213.109C152.344 213.109 153.317 212.724 154.066 211.934C154.816 211.144 155.201 210.171 155.201 208.996C155.201 207.821 154.816 206.849 154.066 206.059C153.317 205.269 152.344 204.884 151.189 204.884C150.014 204.884 149.062 205.269 148.313 206.059C147.563 206.849 147.178 207.821 147.178 208.996C147.178 210.171 147.563 211.144 148.313 211.934C149.062 212.724 150.014 213.109 151.189 213.109ZM163.274 203.81C164.915 203.81 166.212 204.316 167.144 205.35C168.055 206.383 168.461 207.76 168.319 209.442H159.405C159.587 211.711 161.107 213.129 163.376 213.129C164.773 213.129 166.212 212.541 166.88 211.65L167.67 212.339C166.718 213.534 165.118 214.223 163.355 214.223C161.836 214.223 160.621 213.737 159.668 212.764C158.716 211.792 158.23 210.536 158.23 208.996C158.23 207.477 158.696 206.221 159.628 205.248C160.56 204.296 161.775 203.81 163.274 203.81ZM163.295 204.863C161.107 204.863 159.628 206.241 159.405 208.429H167.204C167.184 206.302 165.624 204.863 163.295 204.863ZM173.018 208.854L178.629 214H177.029L171.904 209.3V214H170.749V203.992H171.904V208.469L176.502 203.992H178.022L173.018 208.854ZM179.376 203.992H187.783V205.066H184.157V214H183.002V205.066H179.376V203.992ZM202.582 208.267V203.992H203.736V214H202.582V209.361H196.099V214H194.944V203.992H196.099V208.267H202.582ZM215.461 205.998V203.992H216.535V214H215.461V212.015C214.671 213.331 213.111 214.182 211.308 214.182C209.829 214.182 208.634 213.696 207.702 212.724C206.77 211.772 206.304 210.516 206.304 208.996C206.304 207.477 206.77 206.221 207.702 205.248C208.634 204.296 209.829 203.81 211.308 203.81C213.151 203.81 214.671 204.641 215.461 205.998ZM211.409 213.109C212.584 213.109 213.536 212.724 214.286 211.974C215.015 211.225 215.38 210.232 215.38 208.996C215.38 207.76 215.015 206.768 214.286 206.018C213.536 205.269 212.584 204.884 211.409 204.884C210.254 204.884 209.302 205.269 208.573 206.018C207.823 206.768 207.459 207.76 207.459 208.996C207.459 210.232 207.823 211.225 208.573 211.974C209.302 212.724 210.254 213.109 211.409 213.109ZM227.363 208.854L232.975 214H231.374L226.249 209.3V214H225.094V203.992H226.249V208.469L230.848 203.992H232.367L227.363 208.854ZM242.624 205.998V203.992H243.697V214H242.624V212.015C241.834 213.331 240.274 214.182 238.471 214.182C236.992 214.182 235.797 213.696 234.865 212.724C233.933 211.772 233.467 210.516 233.467 208.996C233.467 207.477 233.933 206.221 234.865 205.248C235.797 204.296 236.992 203.81 238.471 203.81C240.314 203.81 241.834 204.641 242.624 205.998ZM238.572 213.109C239.747 213.109 240.699 212.724 241.449 211.974C242.178 211.225 242.543 210.232 242.543 208.996C242.543 207.76 242.178 206.768 241.449 206.018C240.699 205.269 239.747 204.884 238.572 204.884C237.417 204.884 236.465 205.269 235.736 206.018C234.986 206.768 234.622 207.76 234.622 208.996C234.622 210.232 234.986 211.225 235.736 211.974C236.465 212.724 237.417 213.109 238.572 213.109ZM252.142 203.81C253.621 203.81 254.816 204.296 255.768 205.248C256.7 206.221 257.166 207.477 257.166 208.996C257.166 210.516 256.7 211.772 255.768 212.724C254.816 213.696 253.621 214.182 252.142 214.182C250.379 214.182 248.88 213.413 248.09 212.136V218.821H246.935V203.992H247.989L248.009 205.978C248.759 204.661 250.298 203.81 252.142 203.81ZM252.041 213.109C253.216 213.109 254.168 212.724 254.917 211.974C255.647 211.225 256.011 210.232 256.011 208.996C256.011 207.76 255.647 206.768 254.917 206.018C254.168 205.269 253.216 204.884 252.041 204.884C250.886 204.884 249.934 205.269 249.204 206.018C248.455 206.768 248.09 207.76 248.09 208.996C248.09 210.232 248.455 211.225 249.204 211.974C249.934 212.724 250.886 213.109 252.041 213.109ZM258.411 203.992H266.818V205.066H263.192V214H262.037V205.066H258.411V203.992ZM273.073 203.81C274.714 203.81 276.011 204.316 276.943 205.35C277.854 206.383 278.259 207.76 278.118 209.442H269.204C269.386 211.711 270.906 213.129 273.174 213.129C274.572 213.129 276.011 212.541 276.679 211.65L277.469 212.339C276.517 213.534 274.917 214.223 273.154 214.223C271.635 214.223 270.419 213.737 269.467 212.764C268.515 211.792 268.029 210.536 268.029 208.996C268.029 207.477 268.495 206.221 269.427 205.248C270.359 204.296 271.574 203.81 273.073 203.81ZM273.093 204.863C270.906 204.863 269.427 206.241 269.204 208.429H277.003C276.983 206.302 275.423 204.863 273.093 204.863ZM16.6615 230.015L23.3873 221.992H24.3192V232H23.1645V226.206L23.1847 223.937L16.4792 232H15.5271V221.992H16.6818V227.28L16.6615 230.015ZM28.8925 226.854L29.2572 221.992H36.3274V232H35.1726V223.066H30.3106L30.027 226.976C29.8852 228.637 29.6016 229.853 29.1559 230.622C28.7102 231.413 28.0012 231.919 27.049 232.162L26.8059 231.149C27.4744 230.947 27.9809 230.541 28.2848 229.913C28.5887 229.285 28.7912 228.272 28.8925 226.854ZM40.6986 230.015L47.4244 221.992H48.3562V232H47.2015V226.206L47.2218 223.937L40.5162 232H39.5641V221.992H40.7188V227.28L40.6986 230.015ZM63.559 226.895C64.6125 227.239 65.3215 228.151 65.3215 229.285C65.3215 231.007 64.1263 232 62.0397 232H56.9143V221.992H62.0397C63.8224 221.992 64.9771 222.985 64.9771 224.606C64.9771 225.679 64.4301 226.55 63.559 226.895ZM63.8427 224.687C63.8427 223.633 63.0526 223.005 61.8371 223.005H58.0082V226.388H61.7358C63.0931 226.388 63.8427 225.76 63.8427 224.687ZM58.0082 230.987H61.8776C63.397 230.987 64.187 230.339 64.187 229.225C64.187 228.11 63.2957 227.401 61.7763 227.401H58.0082V230.987ZM75.5047 226.854L81.1162 232H79.5158L74.3905 227.3V232H73.2357V221.992H74.3905V226.469L78.9891 221.992H80.5085L75.5047 226.854ZM90.7651 223.998V221.992H91.8388V232H90.7651V230.015C89.975 231.331 88.4151 232.182 86.6121 232.182C85.1333 232.182 83.938 231.696 83.0061 230.724C82.0742 229.772 81.6083 228.516 81.6083 226.996C81.6083 225.477 82.0742 224.221 83.0061 223.248C83.938 222.296 85.1333 221.81 86.6121 221.81C88.4556 221.81 89.975 222.641 90.7651 223.998ZM86.7134 231.109C87.8884 231.109 88.8405 230.724 89.5901 229.974C90.3194 229.225 90.684 228.232 90.684 226.996C90.684 225.76 90.3194 224.768 89.5901 224.018C88.8405 223.269 87.8884 222.884 86.7134 222.884C85.5587 222.884 84.6065 223.269 83.8772 224.018C83.1277 224.768 82.763 225.76 82.763 226.996C82.763 228.232 83.1277 229.225 83.8772 229.974C84.6065 230.724 85.5587 231.109 86.7134 231.109ZM94.2867 221.992H102.694V223.066H99.0677V232H97.913V223.066H94.2867V221.992ZM113.061 223.998V221.992H114.135V232H113.061V230.015C112.271 231.331 110.711 232.182 108.908 232.182C107.429 232.182 106.234 231.696 105.302 230.724C104.37 229.772 103.904 228.516 103.904 226.996C103.904 225.477 104.37 224.221 105.302 223.248C106.234 222.296 107.429 221.81 108.908 221.81C110.752 221.81 112.271 222.641 113.061 223.998ZM109.009 231.109C110.184 231.109 111.137 230.724 111.886 229.974C112.615 229.225 112.98 228.232 112.98 226.996C112.98 225.76 112.615 224.768 111.886 224.018C111.137 223.269 110.184 222.884 109.009 222.884C107.855 222.884 106.903 223.269 106.173 224.018C105.424 224.768 105.059 225.76 105.059 226.996C105.059 228.232 105.424 229.225 106.173 229.974C106.903 230.724 107.855 231.109 109.009 231.109ZM118.71 226.854L119.075 221.992H126.145V232H124.99V223.066H120.128L119.844 226.976C119.703 228.637 119.419 229.853 118.973 230.622C118.528 231.413 117.819 231.919 116.866 232.162L116.623 231.149C117.292 230.947 117.798 230.541 118.102 229.913C118.406 229.285 118.609 228.272 118.71 226.854ZM133.879 232.203C132.359 232.203 131.103 231.716 130.151 230.724C129.199 229.751 128.713 228.516 128.713 226.996C128.713 225.477 129.199 224.241 130.151 223.248C131.103 222.276 132.359 221.79 133.879 221.79C135.398 221.79 136.634 222.276 137.606 223.248C138.559 224.241 139.045 225.477 139.045 226.996C139.045 228.516 138.559 229.751 137.606 230.724C136.634 231.716 135.398 232.203 133.879 232.203ZM133.879 231.109C135.034 231.109 136.006 230.724 136.756 229.934C137.505 229.144 137.89 228.171 137.89 226.996C137.89 225.821 137.505 224.849 136.756 224.059C136.006 223.269 135.034 222.884 133.879 222.884C132.704 222.884 131.752 223.269 131.002 224.059C130.253 224.849 129.868 225.821 129.868 226.996C129.868 228.171 130.253 229.144 131.002 229.934C131.752 230.724 132.704 231.109 133.879 231.109ZM142.743 232H141.588V221.992H148.253V223.066H142.743V232ZM154.154 221.81C155.795 221.81 157.092 222.316 158.024 223.35C158.935 224.383 159.34 225.76 159.198 227.442H150.285C150.467 229.711 151.987 231.129 154.255 231.129C155.653 231.129 157.092 230.541 157.76 229.65L158.55 230.339C157.598 231.534 155.998 232.223 154.235 232.223C152.716 232.223 151.5 231.737 150.548 230.764C149.596 229.792 149.11 228.536 149.11 226.996C149.11 225.477 149.576 224.221 150.508 223.248C151.44 222.296 152.655 221.81 154.154 221.81ZM154.174 222.863C151.987 222.863 150.508 224.241 150.285 226.429H158.084C158.064 224.302 156.504 222.863 154.174 222.863ZM166.95 232V221.992H175.743V232H174.588V223.066H168.105V232H166.95ZM183.476 232.203C181.957 232.203 180.701 231.716 179.749 230.724C178.797 229.751 178.31 228.516 178.31 226.996C178.31 225.477 178.797 224.241 179.749 223.248C180.701 222.276 181.957 221.79 183.476 221.79C184.996 221.79 186.231 222.276 187.204 223.248C188.156 224.241 188.642 225.477 188.642 226.996C188.642 228.516 188.156 229.751 187.204 230.724C186.231 231.716 184.996 232.203 183.476 232.203ZM183.476 231.109C184.631 231.109 185.603 230.724 186.353 229.934C187.102 229.144 187.487 228.171 187.487 226.996C187.487 225.821 187.102 224.849 186.353 224.059C185.603 223.269 184.631 222.884 183.476 222.884C182.301 222.884 181.349 223.269 180.6 224.059C179.85 224.849 179.465 225.821 179.465 226.996C179.465 228.171 179.85 229.144 180.6 229.934C181.349 230.724 182.301 231.109 183.476 231.109ZM197.642 230.015L204.367 221.992H205.299V232H204.145V226.206L204.165 223.937L197.459 232H196.507V221.992H197.662V227.28L197.642 230.015ZM216.173 226.267V221.992H217.328V232H216.173V227.361H209.69V232H208.536V221.992H209.69V226.267H216.173ZM219.774 221.992H228.181V223.066H224.555V232H223.4V223.066H219.774V221.992ZM234.436 221.81C236.077 221.81 237.373 222.316 238.305 223.35C239.217 224.383 239.622 225.76 239.48 227.442H230.567C230.749 229.711 232.268 231.129 234.537 231.129C235.935 231.129 237.373 230.541 238.042 229.65L238.832 230.339C237.88 231.534 236.279 232.223 234.517 232.223C232.998 232.223 231.782 231.737 230.83 230.764C229.878 229.792 229.392 228.536 229.392 226.996C229.392 225.477 229.857 224.221 230.789 223.248C231.721 222.296 232.937 221.81 234.436 221.81ZM234.456 222.863C232.268 222.863 230.789 224.241 230.567 226.429H238.366C238.346 224.302 236.786 222.863 234.456 222.863ZM247.117 221.81C248.596 221.81 249.791 222.296 250.743 223.248C251.675 224.221 252.141 225.477 252.141 226.996C252.141 228.516 251.675 229.772 250.743 230.724C249.791 231.696 248.596 232.182 247.117 232.182C245.354 232.182 243.855 231.413 243.065 230.136V236.821H241.91V221.992H242.964L242.984 223.978C243.734 222.661 245.273 221.81 247.117 221.81ZM247.016 231.109C248.191 231.109 249.143 230.724 249.892 229.974C250.622 229.225 250.986 228.232 250.986 226.996C250.986 225.76 250.622 224.768 249.892 224.018C249.143 223.269 248.191 222.884 247.016 222.884C245.861 222.884 244.909 223.269 244.179 224.018C243.43 224.768 243.065 225.76 243.065 226.996C243.065 228.232 243.43 229.225 244.179 229.974C244.909 230.724 245.861 231.109 247.016 231.109ZM259.086 221.81C260.727 221.81 262.024 222.316 262.956 223.35C263.867 224.383 264.272 225.76 264.131 227.442H255.217C255.399 229.711 256.919 231.129 259.187 231.129C260.585 231.129 262.024 230.541 262.692 229.65L263.482 230.339C262.53 231.534 260.93 232.223 259.167 232.223C257.648 232.223 256.432 231.737 255.48 230.764C254.528 229.792 254.042 228.536 254.042 226.996C254.042 225.477 254.508 224.221 255.44 223.248C256.372 222.296 257.587 221.81 259.086 221.81ZM259.106 222.863C256.919 222.863 255.44 224.241 255.217 226.429H263.016C262.996 224.302 261.436 222.863 259.106 222.863ZM271.099 232.203C269.579 232.203 268.343 231.716 267.371 230.744C266.378 229.772 265.892 228.516 265.892 226.996C265.892 225.457 266.378 224.201 267.371 223.228C268.343 222.276 269.579 221.79 271.099 221.79C272.476 221.79 273.671 222.296 274.705 223.289L273.975 224.059C273.226 223.269 272.274 222.884 271.078 222.884C269.924 222.884 268.971 223.248 268.202 223.998C267.432 224.748 267.047 225.74 267.047 226.996C267.047 228.232 267.432 229.225 268.222 229.974C268.992 230.724 269.944 231.109 271.099 231.109C272.294 231.109 273.287 230.703 274.077 229.893L274.806 230.703C273.793 231.696 272.557 232.203 271.099 232.203ZM285.455 223.998V221.992H286.529V232H285.455V230.015C284.665 231.331 283.105 232.182 281.302 232.182C279.823 232.182 278.628 231.696 277.696 230.724C276.764 229.772 276.298 228.516 276.298 226.996C276.298 225.477 276.764 224.221 277.696 223.248C278.628 222.296 279.823 221.81 281.302 221.81C283.146 221.81 284.665 222.641 285.455 223.998ZM281.403 231.109C282.578 231.109 283.531 230.724 284.28 229.974C285.009 229.225 285.374 228.232 285.374 226.996C285.374 225.76 285.009 224.768 284.28 224.018C283.531 223.269 282.578 222.884 281.403 222.884C280.249 222.884 279.297 223.269 278.567 224.018C277.818 224.768 277.453 225.76 277.453 226.996C277.453 228.232 277.818 229.225 278.567 229.974C279.297 230.724 280.249 231.109 281.403 231.109ZM295.135 227.725L299.228 221.992H300.484V232H299.349V223.694L295.338 229.285H294.892L290.881 223.654V232H289.767V221.992H291.023L295.135 227.725ZM118.27 249.015L124.996 240.992H125.928V251H124.773V245.206L124.793 242.937L118.088 251H117.135V240.992H118.29V246.28L118.27 249.015ZM135.64 251H134.486V240.992H141.151V242.066H135.64V251ZM147.173 251.203C145.654 251.203 144.398 250.716 143.446 249.724C142.494 248.751 142.008 247.516 142.008 245.996C142.008 244.477 142.494 243.241 143.446 242.248C144.398 241.276 145.654 240.79 147.173 240.79C148.693 240.79 149.929 241.276 150.901 242.248C151.853 243.241 152.339 244.477 152.339 245.996C152.339 247.516 151.853 248.751 150.901 249.724C149.929 250.716 148.693 251.203 147.173 251.203ZM147.173 250.109C148.328 250.109 149.301 249.724 150.05 248.934C150.8 248.144 151.185 247.171 151.185 245.996C151.185 244.821 150.8 243.849 150.05 243.059C149.301 242.269 148.328 241.884 147.173 241.884C145.998 241.884 145.046 242.269 144.297 243.059C143.547 243.849 143.162 244.821 143.162 245.996C143.162 247.171 143.547 248.144 144.297 248.934C145.046 249.724 145.998 250.109 147.173 250.109ZM160.089 240.81C161.568 240.81 162.763 241.296 163.715 242.248C164.647 243.221 165.113 244.477 165.113 245.996C165.113 247.516 164.647 248.772 163.715 249.724C162.763 250.696 161.568 251.182 160.089 251.182C158.326 251.182 156.827 250.413 156.037 249.136V255.821H154.883V240.992H155.936L155.956 242.978C156.706 241.661 158.245 240.81 160.089 240.81ZM159.988 250.109C161.163 250.109 162.115 249.724 162.864 248.974C163.594 248.225 163.958 247.232 163.958 245.996C163.958 244.76 163.594 243.768 162.864 243.018C162.115 242.269 161.163 241.884 159.988 241.884C158.833 241.884 157.881 242.269 157.151 243.018C156.402 243.768 156.037 244.76 156.037 245.996C156.037 247.232 156.402 248.225 157.151 248.974C157.881 249.724 158.833 250.109 159.988 250.109ZM172.18 251.203C170.66 251.203 169.404 250.716 168.452 249.724C167.5 248.751 167.014 247.516 167.014 245.996C167.014 244.477 167.5 243.241 168.452 242.248C169.404 241.276 170.66 240.79 172.18 240.79C173.699 240.79 174.935 241.276 175.907 242.248C176.86 243.241 177.346 244.477 177.346 245.996C177.346 247.516 176.86 248.751 175.907 249.724C174.935 250.716 173.699 251.203 172.18 251.203ZM172.18 250.109C173.335 250.109 174.307 249.724 175.057 248.934C175.806 248.144 176.191 247.171 176.191 245.996C176.191 244.821 175.806 243.849 175.057 243.059C174.307 242.269 173.335 241.884 172.18 241.884C171.005 241.884 170.053 242.269 169.303 243.059C168.554 243.849 168.169 244.821 168.169 245.996C168.169 247.171 168.554 248.144 169.303 248.934C170.053 249.724 171.005 250.109 172.18 250.109ZM187.88 240.992V249.926H189.44V253.775H188.326V251H179.432V253.775H178.318V249.926H179.372C179.736 249.541 180.02 249.096 180.202 248.589C180.385 248.083 180.526 247.353 180.607 246.361L181.033 240.992H187.88ZM182.066 242.066L181.762 246.462C181.62 248.022 181.276 249.177 180.729 249.926H186.725V242.066H182.066ZM196.153 246.543L198.543 240.992H199.799L193.357 255.821H192.081L194.208 250.939L190.075 240.992H191.331L193.6 246.543L194.856 249.602L196.153 246.543Z" fill="white"/>
<path d="M48.782 172.471V164.069H52.9085V185H48.782V176.269H38.7948V185H34.6683V164.069H38.7948V172.471H48.782ZM78.6365 185H74.1213L72.387 180.933H61.5924L59.8581 185H55.3728L64.762 164.069H69.2772L78.6365 185ZM70.8919 177.285L67.0046 168.165L63.1174 177.285H70.8919ZM90.4274 162.424C87.5867 162.424 85.8823 160.989 85.3142 158.148L87.9157 157.371C88.2147 158.776 89.0519 159.464 90.4274 159.464C91.8328 159.464 92.6701 158.776 92.9691 157.371L95.5705 158.148C95.0024 160.989 93.2681 162.424 90.4274 162.424ZM85.1647 178.242L95.6303 164.069H99.3681V185H95.2416V177.196L95.3014 170.856L84.8059 185H81.098V164.069H85.2245V172.172L85.1647 178.242ZM122.733 164.069V181.202H126.022V189.396H122.016V185H106.227V189.396H102.25V181.202H104.433C106.078 179.767 106.766 178.033 106.975 174.475L107.603 164.069H122.733ZM118.637 167.866H111.43L111.042 174.983C110.892 177.824 110.234 179.976 109.128 181.412H118.637V167.866ZM133.259 178.242L143.725 164.069H147.462V185H143.336V177.196L143.396 170.856L132.9 185H129.192V164.069H133.319V172.172L133.259 178.242ZM159.591 185V164.069H177.92V185H173.674V167.956H163.837V185H159.591ZM182.835 164.069H192.672C195.035 164.069 196.948 164.727 198.354 166.072C199.759 167.418 200.477 169.212 200.477 171.454C200.477 173.697 199.759 175.491 198.354 176.837C196.948 178.182 195.035 178.87 192.672 178.87H186.961V185H182.835V164.069ZM186.931 175.162H192.493C194.855 175.162 196.32 173.727 196.32 171.484C196.32 169.242 194.855 167.806 192.493 167.806H186.931V175.162ZM221.387 182.458C219.384 184.462 216.723 185.478 213.404 185.478C210.085 185.478 207.423 184.462 205.42 182.458C203.387 180.455 202.37 177.824 202.37 174.534C202.37 171.245 203.387 168.584 205.42 166.58C207.423 164.577 210.085 163.59 213.404 163.59C216.723 163.59 219.384 164.577 221.387 166.58C223.391 168.584 224.408 171.245 224.408 174.534C224.408 177.824 223.391 180.455 221.387 182.458ZM213.404 181.711C215.437 181.711 217.082 181.053 218.337 179.707C219.593 178.392 220.221 176.657 220.221 174.534C220.221 172.411 219.593 170.677 218.337 169.331C217.082 168.016 215.437 167.358 213.404 167.358C211.34 167.358 209.696 168.016 208.44 169.331C207.184 170.677 206.556 172.411 206.556 174.534C206.556 176.657 207.184 178.392 208.44 179.707C209.696 181.053 211.34 181.711 213.404 181.711ZM232.134 176.149V181.382H243.975V185H228.067V164.069H243.706V167.657H232.134V172.651H243.168V176.149H232.134ZM255.758 174.265L265.835 185H260.303L252.05 176.089V185H247.924V164.069H252.05V172.71L259.705 164.069H264.968L255.758 174.265ZM265.924 164.069H283.297V167.776H276.689V185H272.532V167.776H265.924V164.069Z" fill="white"/>
<path d="M157.5 135L157.095 134.391C154.281 130.166 152.875 128.053 151.016 126.523C149.371 125.169 147.475 124.153 145.438 123.533C143.136 122.833 140.6 122.833 135.528 122.833H129.96C125.424 122.833 123.155 122.833 121.423 121.949C119.899 121.172 118.659 119.931 117.883 118.405C117 116.67 117 114.398 117 109.856V74.9778C117 70.4351 117 68.1638 117.883 66.4287C118.659 64.9025 119.899 63.6617 121.423 62.8841C123.155 62 125.424 62 129.96 62H131.58C140.653 62 145.189 62 148.655 63.7681C151.703 65.3234 154.181 67.8051 155.734 70.8575C157.5 74.3276 157.5 78.8703 157.5 87.9556M157.5 135V87.9556M157.5 135L157.905 134.391C160.719 130.166 162.125 128.053 163.984 126.523C165.629 125.169 167.525 124.153 169.563 123.533C171.864 122.833 174.4 122.833 179.472 122.833H185.04C189.576 122.833 191.845 122.833 193.577 121.949C195.101 121.172 196.341 119.931 197.117 118.405C198 116.67 198 114.398 198 109.856V74.9778C198 70.4351 198 68.1638 197.117 66.4287C196.341 64.9025 195.101 63.6617 193.577 62.8841C191.845 62 189.576 62 185.04 62H183.42C174.347 62 169.811 62 166.345 63.7681C163.297 65.3234 160.819 67.8051 159.266 70.8575C157.5 74.3276 157.5 78.8703 157.5 87.9556" stroke="white" stroke-width="5" stroke-linecap="round" stroke-linejoin="round"/>
</svg>
