<svg width="850" height="78" viewBox="0 0 850 78" fill="none" xmlns="http://www.w3.org/2000/svg">
<rect width="850" height="78" rx="25" fill="#02F8B2" fill-opacity="0.21"/>
<path d="M39.0262 37.1278V39.1843H28.7042V37.1278H39.0262ZM29.0971 28.9278V48H26.569V28.9278H29.0971ZM41.2269 28.9278V48H38.7119V28.9278H41.2269ZM53.7103 45.5767V38.2805C53.7103 37.7216 53.5967 37.2369 53.3697 36.8265C53.1514 36.4073 52.8195 36.0842 52.3742 35.8572C51.9288 35.6301 51.3786 35.5166 50.7237 35.5166C50.1124 35.5166 49.5753 35.6214 49.1125 35.831C48.6584 36.0406 48.3004 36.3156 48.0384 36.6562C47.7851 36.9968 47.6585 37.3636 47.6585 37.7565H45.2352C45.2352 37.25 45.3662 36.7479 45.6282 36.2501C45.8901 35.7524 46.2656 35.3026 46.7547 34.9009C47.2524 34.4905 47.8463 34.1674 48.5361 33.9316C49.2348 33.6871 50.012 33.5648 50.8678 33.5648C51.8982 33.5648 52.8064 33.7395 53.5924 34.0888C54.3871 34.4381 55.0071 34.9664 55.4524 35.6738C55.9065 36.3724 56.1336 37.25 56.1336 38.3067V44.9086C56.1336 45.3802 56.1729 45.8823 56.2515 46.415C56.3388 46.9477 56.4654 47.4062 56.6314 47.7904V48H54.1032C53.981 47.7206 53.8849 47.3494 53.8151 46.8866C53.7452 46.415 53.7103 45.9784 53.7103 45.5767ZM54.1294 39.407L54.1556 41.1099H51.7061C51.0162 41.1099 50.4006 41.1667 49.8591 41.2802C49.3177 41.385 48.8636 41.5465 48.4968 41.7648C48.1301 41.9832 47.8506 42.2582 47.6585 42.5901C47.4664 42.9132 47.3703 43.2931 47.3703 43.7297C47.3703 44.1751 47.4708 44.5811 47.6716 44.9479C47.8725 45.3147 48.1737 45.6072 48.5754 45.8256C48.9859 46.0351 49.488 46.1399 50.0818 46.1399C50.8241 46.1399 51.4791 45.9827 52.0467 45.6684C52.6143 45.354 53.064 44.9698 53.3959 44.5157C53.7365 44.0616 53.9199 43.6205 53.9461 43.1926L54.9809 44.3585C54.9197 44.7252 54.7538 45.1313 54.4831 45.5767C54.2124 46.022 53.85 46.4499 53.3959 46.8604C52.9505 47.2621 52.4178 47.5983 51.7978 47.869C51.1865 48.131 50.4966 48.262 49.7282 48.262C48.7676 48.262 47.9249 48.0742 47.2 47.6987C46.484 47.3232 45.9251 46.8211 45.5234 46.1923C45.1304 45.5548 44.9339 44.8431 44.9339 44.0572C44.9339 43.2974 45.0824 42.6294 45.3793 42.053C45.6762 41.4679 46.1041 40.9833 46.663 40.599C47.2219 40.2061 47.8943 39.9091 48.6802 39.7083C49.4662 39.5074 50.3438 39.407 51.3131 39.407H54.1294ZM69.3898 33.8268V35.831H62.2247V33.8268H69.3898ZM62.5783 33.8268V48H60.155V33.8268H62.5783ZM71.5381 33.8268V48H69.1017V33.8268H71.5381ZM77.8518 36.5514V53.4492H75.4154V33.8268H77.6422L77.8518 36.5514ZM87.401 40.7955V41.0706C87.401 42.1011 87.2788 43.0573 87.0343 43.9393C86.7897 44.8126 86.4317 45.5723 85.9601 46.2185C85.4973 46.8647 84.9253 47.3669 84.2442 47.7249C83.563 48.083 82.7814 48.262 81.8994 48.262C81 48.262 80.2053 48.1135 79.5154 47.8166C78.8255 47.5197 78.2404 47.0874 77.7601 46.5198C77.2798 45.9522 76.8956 45.271 76.6074 44.4764C76.328 43.6817 76.1359 42.7866 76.0311 41.791V40.324C76.1359 39.276 76.3323 38.3373 76.6205 37.5077C76.9087 36.678 77.2886 35.9707 77.7601 35.3856C78.2404 34.7918 78.8212 34.3421 79.5023 34.0364C80.1835 33.722 80.9694 33.5648 81.8601 33.5648C82.7509 33.5648 83.5412 33.7395 84.2311 34.0888C84.921 34.4294 85.5017 34.9184 85.9732 35.5559C86.4448 36.1934 86.7985 36.9575 87.0343 37.8482C87.2788 38.7302 87.401 39.7127 87.401 40.7955ZM84.9646 41.0706V40.7955C84.9646 40.0882 84.8904 39.4245 84.7419 38.8045C84.5935 38.1757 84.3621 37.6255 84.0477 37.154C83.742 36.6737 83.3491 36.2982 82.8688 36.0275C82.3885 35.748 81.8165 35.6083 81.1528 35.6083C80.5415 35.6083 80.0088 35.7131 79.5547 35.9227C79.1093 36.1323 78.7295 36.4161 78.4151 36.7741C78.1007 37.1234 77.8431 37.5251 77.6422 37.9792C77.4501 38.4246 77.306 38.8874 77.21 39.3677V42.7604C77.3846 43.3717 77.6291 43.948 77.9435 44.4895C78.2579 45.0221 78.6771 45.4544 79.201 45.7863C79.725 46.1094 80.3843 46.2709 81.179 46.2709C81.8339 46.2709 82.3972 46.1356 82.8688 45.8649C83.3491 45.5854 83.742 45.2055 84.0477 44.7252C84.3621 44.2449 84.5935 43.6948 84.7419 43.0748C84.8904 42.446 84.9646 41.7779 84.9646 41.0706ZM93.1122 44.162L99.6487 33.8268H102.085V48H99.6487V37.6648L93.1122 48H90.702V33.8268H93.1122V44.162ZM114.123 44.7776L118.944 33.8268H121.275L114.961 48H113.285L106.997 33.8268H109.329L114.123 44.7776ZM108.622 33.8268V48H106.198V33.8268H108.622ZM119.546 48V33.8268H121.983V48H119.546ZM131.768 48.262C130.781 48.262 129.886 48.0961 129.082 47.7642C128.288 47.4236 127.602 46.9477 127.026 46.3364C126.458 45.7251 126.021 45.0003 125.716 44.162C125.41 43.3236 125.257 42.4067 125.257 41.4112V40.861C125.257 39.7083 125.428 38.6822 125.768 37.7827C126.109 36.8745 126.572 36.1061 127.157 35.4773C127.742 34.8485 128.405 34.3726 129.148 34.0495C129.89 33.7264 130.658 33.5648 131.453 33.5648C132.466 33.5648 133.339 33.7395 134.073 34.0888C134.815 34.4381 135.422 34.9271 135.894 35.5559C136.365 36.1759 136.715 36.9095 136.942 37.7565C137.169 38.5949 137.282 39.5118 137.282 40.5073V41.5946H126.698V39.6166H134.859V39.4332C134.824 38.8045 134.693 38.1932 134.466 37.5993C134.248 37.0055 133.898 36.5165 133.418 36.1323C132.938 35.748 132.283 35.5559 131.453 35.5559C130.903 35.5559 130.397 35.6738 129.934 35.9096C129.471 36.1366 129.074 36.4772 128.742 36.9313C128.41 37.3854 128.152 37.9399 127.969 38.5949C127.785 39.2498 127.694 40.0052 127.694 40.861V41.4112C127.694 42.0836 127.785 42.7167 127.969 43.3105C128.161 43.8956 128.436 44.4109 128.794 44.8562C129.161 45.3016 129.602 45.6509 130.117 45.9042C130.641 46.1574 131.235 46.284 131.899 46.284C132.754 46.284 133.479 46.1094 134.073 45.7601C134.667 45.4108 135.186 44.9436 135.632 44.3585L137.099 45.5243C136.793 45.9871 136.405 46.4281 135.933 46.8473C135.461 47.2665 134.881 47.607 134.191 47.869C133.51 48.131 132.702 48.262 131.768 48.262ZM142.535 36.5514V53.4492H140.099V33.8268H142.325L142.535 36.5514ZM152.084 40.7955V41.0706C152.084 42.1011 151.962 43.0573 151.717 43.9393C151.473 44.8126 151.115 45.5723 150.643 46.2185C150.18 46.8647 149.608 47.3669 148.927 47.7249C148.246 48.083 147.465 48.262 146.583 48.262C145.683 48.262 144.888 48.1135 144.199 47.8166C143.509 47.5197 142.924 47.0874 142.443 46.5198C141.963 45.9522 141.579 45.271 141.291 44.4764C141.011 43.6817 140.819 42.7866 140.714 41.791V40.324C140.819 39.276 141.015 38.3373 141.304 37.5077C141.592 36.678 141.972 35.9707 142.443 35.3856C142.924 34.7918 143.504 34.3421 144.185 34.0364C144.867 33.722 145.653 33.5648 146.543 33.5648C147.434 33.5648 148.224 33.7395 148.914 34.0888C149.604 34.4294 150.185 34.9184 150.656 35.5559C151.128 36.1934 151.482 36.9575 151.717 37.8482C151.962 38.7302 152.084 39.7127 152.084 40.7955ZM149.648 41.0706V40.7955C149.648 40.0882 149.574 39.4245 149.425 38.8045C149.277 38.1757 149.045 37.6255 148.731 37.154C148.425 36.6737 148.032 36.2982 147.552 36.0275C147.072 35.748 146.5 35.6083 145.836 35.6083C145.225 35.6083 144.692 35.7131 144.238 35.9227C143.792 36.1323 143.413 36.4161 143.098 36.7741C142.784 37.1234 142.526 37.5251 142.325 37.9792C142.133 38.4246 141.989 38.8874 141.893 39.3677V42.7604C142.068 43.3717 142.312 43.948 142.627 44.4895C142.941 45.0221 143.36 45.4544 143.884 45.7863C144.408 46.1094 145.067 46.2709 145.862 46.2709C146.517 46.2709 147.08 46.1356 147.552 45.8649C148.032 45.5854 148.425 45.2055 148.731 44.7252C149.045 44.2449 149.277 43.6948 149.425 43.0748C149.574 42.446 149.648 41.7779 149.648 41.0706ZM155.071 46.7163C155.071 46.3059 155.197 45.9609 155.451 45.6815C155.713 45.3933 156.088 45.2492 156.577 45.2492C157.066 45.2492 157.437 45.3933 157.691 45.6815C157.953 45.9609 158.084 46.3059 158.084 46.7163C158.084 47.118 157.953 47.4586 157.691 47.738C157.437 48.0175 157.066 48.1572 156.577 48.1572C156.088 48.1572 155.713 48.0175 155.451 47.738C155.197 47.4586 155.071 47.118 155.071 46.7163ZM155.084 35.1498C155.084 34.7394 155.21 34.3944 155.464 34.115C155.726 33.8268 156.101 33.6827 156.59 33.6827C157.079 33.6827 157.45 33.8268 157.704 34.115C157.966 34.3944 158.097 34.7394 158.097 35.1498C158.097 35.5515 157.966 35.8921 157.704 36.1716C157.45 36.451 157.079 36.5907 156.59 36.5907C156.101 36.5907 155.726 36.451 155.464 36.1716C155.21 35.8921 155.084 35.5515 155.084 35.1498ZM180.208 41.9351H182.723C182.592 43.1403 182.247 44.2187 181.688 45.1706C181.129 46.1225 180.339 46.8778 179.317 47.4367C178.295 47.9869 177.02 48.262 175.492 48.262C174.374 48.262 173.357 48.0524 172.44 47.6332C171.532 47.2141 170.75 46.6202 170.095 45.8518C169.44 45.0745 168.934 44.1445 168.576 43.0617C168.227 41.9701 168.052 40.7562 168.052 39.4201V37.5208C168.052 36.1847 168.227 34.9752 168.576 33.8923C168.934 32.8007 169.445 31.8663 170.108 31.0891C170.781 30.3119 171.589 29.7137 172.532 29.2945C173.475 28.8754 174.536 28.6658 175.715 28.6658C177.156 28.6658 178.374 28.9365 179.37 29.4779C180.365 30.0194 181.138 30.7704 181.688 31.731C182.247 32.6828 182.592 33.7875 182.723 35.045H180.208C180.086 34.1543 179.859 33.3902 179.527 32.7527C179.195 32.1065 178.723 31.6087 178.112 31.2594C177.501 30.9101 176.702 30.7354 175.715 30.7354C174.868 30.7354 174.121 30.897 173.475 31.2201C172.837 31.5432 172.3 32.0017 171.864 32.5955C171.436 33.1893 171.113 33.901 170.894 34.7307C170.676 35.5603 170.567 36.4816 170.567 37.4946V39.4201C170.567 40.3545 170.663 41.2322 170.855 42.053C171.056 42.8739 171.357 43.5944 171.759 44.2144C172.161 44.8344 172.672 45.3234 173.292 45.6815C173.912 46.0308 174.645 46.2054 175.492 46.2054C176.566 46.2054 177.422 46.0351 178.06 45.6946C178.697 45.354 179.177 44.865 179.501 44.2275C179.832 43.59 180.068 42.8259 180.208 41.9351ZM194.158 45.5767V38.2805C194.158 37.7216 194.045 37.2369 193.818 36.8265C193.599 36.4073 193.268 36.0842 192.822 35.8572C192.377 35.6301 191.827 35.5166 191.172 35.5166C190.56 35.5166 190.023 35.6214 189.561 35.831C189.106 36.0406 188.748 36.3156 188.486 36.6562C188.233 36.9968 188.107 37.3636 188.107 37.7565H185.683C185.683 37.25 185.814 36.7479 186.076 36.2501C186.338 35.7524 186.714 35.3026 187.203 34.9009C187.701 34.4905 188.294 34.1674 188.984 33.9316C189.683 33.6871 190.46 33.5648 191.316 33.5648C192.346 33.5648 193.255 33.7395 194.04 34.0888C194.835 34.4381 195.455 34.9664 195.901 35.6738C196.355 36.3724 196.582 37.25 196.582 38.3067V44.9086C196.582 45.3802 196.621 45.8823 196.7 46.415C196.787 46.9477 196.914 47.4062 197.079 47.7904V48H194.551C194.429 47.7206 194.333 47.3494 194.263 46.8866C194.193 46.415 194.158 45.9784 194.158 45.5767ZM194.578 39.407L194.604 41.1099H192.154C191.464 41.1099 190.849 41.1667 190.307 41.2802C189.766 41.385 189.312 41.5465 188.945 41.7648C188.578 41.9832 188.299 42.2582 188.107 42.5901C187.914 42.9132 187.818 43.2931 187.818 43.7297C187.818 44.1751 187.919 44.5811 188.12 44.9479C188.321 45.3147 188.622 45.6072 189.024 45.8256C189.434 46.0351 189.936 46.1399 190.53 46.1399C191.272 46.1399 191.927 45.9827 192.495 45.6684C193.062 45.354 193.512 44.9698 193.844 44.5157C194.185 44.0616 194.368 43.6205 194.394 43.1926L195.429 44.3585C195.368 44.7252 195.202 45.1313 194.931 45.5767C194.66 46.022 194.298 46.4499 193.844 46.8604C193.399 47.2621 192.866 47.5983 192.246 47.869C191.635 48.131 190.945 48.262 190.176 48.262C189.216 48.262 188.373 48.0742 187.648 47.6987C186.932 47.3232 186.373 46.8211 185.971 46.1923C185.578 45.5548 185.382 44.8431 185.382 44.0572C185.382 43.2974 185.53 42.6294 185.827 42.053C186.124 41.4679 186.552 40.9833 187.111 40.599C187.67 40.2061 188.342 39.9091 189.128 39.7083C189.914 39.5074 190.792 39.407 191.761 39.407H194.578ZM202.817 36.5514V53.4492H200.38V33.8268H202.607L202.817 36.5514ZM212.366 40.7955V41.0706C212.366 42.1011 212.244 43.0573 211.999 43.9393C211.755 44.8126 211.397 45.5723 210.925 46.2185C210.462 46.8647 209.89 47.3669 209.209 47.7249C208.528 48.083 207.746 48.262 206.864 48.262C205.965 48.262 205.17 48.1135 204.48 47.8166C203.791 47.5197 203.205 47.0874 202.725 46.5198C202.245 45.9522 201.861 45.271 201.572 44.4764C201.293 43.6817 201.101 42.7866 200.996 41.791V40.324C201.101 39.276 201.297 38.3373 201.586 37.5077C201.874 36.678 202.254 35.9707 202.725 35.3856C203.205 34.7918 203.786 34.3421 204.467 34.0364C205.148 33.722 205.934 33.5648 206.825 33.5648C207.716 33.5648 208.506 33.7395 209.196 34.0888C209.886 34.4294 210.467 34.9184 210.938 35.5559C211.41 36.1934 211.763 36.9575 211.999 37.8482C212.244 38.7302 212.366 39.7127 212.366 40.7955ZM209.93 41.0706V40.7955C209.93 40.0882 209.855 39.4245 209.707 38.8045C209.558 38.1757 209.327 37.6255 209.013 37.154C208.707 36.6737 208.314 36.2982 207.834 36.0275C207.353 35.748 206.781 35.6083 206.118 35.6083C205.506 35.6083 204.974 35.7131 204.52 35.9227C204.074 36.1323 203.694 36.4161 203.38 36.7741C203.066 37.1234 202.808 37.5251 202.607 37.9792C202.415 38.4246 202.271 38.8874 202.175 39.3677V42.7604C202.35 43.3717 202.594 43.948 202.909 44.4895C203.223 45.0221 203.642 45.4544 204.166 45.7863C204.69 46.1094 205.349 46.2709 206.144 46.2709C206.799 46.2709 207.362 46.1356 207.834 45.8649C208.314 45.5854 208.707 45.2055 209.013 44.7252C209.327 44.2449 209.558 43.6948 209.707 43.0748C209.855 42.446 209.93 41.7779 209.93 41.0706ZM214.816 41.0706V40.7693C214.816 39.7476 214.964 38.8001 215.261 37.9268C215.558 37.0448 215.986 36.2807 216.545 35.6345C217.104 34.9795 217.78 34.473 218.575 34.115C219.37 33.7482 220.26 33.5648 221.247 33.5648C222.243 33.5648 223.138 33.7482 223.932 34.115C224.736 34.473 225.417 34.9795 225.976 35.6345C226.544 36.2807 226.976 37.0448 227.273 37.9268C227.57 38.8001 227.718 39.7476 227.718 40.7693V41.0706C227.718 42.0923 227.57 43.0398 227.273 43.9131C226.976 44.7864 226.544 45.5505 225.976 46.2054C225.417 46.8516 224.74 47.3581 223.946 47.7249C223.16 48.083 222.269 48.262 221.273 48.262C220.278 48.262 219.383 48.083 218.588 47.7249C217.793 47.3581 217.112 46.8516 216.545 46.2054C215.986 45.5505 215.558 44.7864 215.261 43.9131C214.964 43.0398 214.816 42.0923 214.816 41.0706ZM217.239 40.7693V41.0706C217.239 41.7779 217.322 42.446 217.488 43.0748C217.654 43.6948 217.903 44.2449 218.234 44.7252C218.575 45.2055 218.999 45.5854 219.505 45.8649C220.012 46.1356 220.601 46.2709 221.273 46.2709C221.937 46.2709 222.518 46.1356 223.016 45.8649C223.522 45.5854 223.941 45.2055 224.273 44.7252C224.605 44.2449 224.854 43.6948 225.02 43.0748C225.194 42.446 225.282 41.7779 225.282 41.0706V40.7693C225.282 40.0707 225.194 39.4114 225.02 38.7914C224.854 38.1626 224.601 37.6081 224.26 37.1278C223.928 36.6388 223.509 36.2545 223.002 35.9751C222.505 35.6956 221.92 35.5559 221.247 35.5559C220.584 35.5559 219.998 35.6956 219.492 35.9751C218.994 36.2545 218.575 36.6388 218.234 37.1278C217.903 37.6081 217.654 38.1626 217.488 38.7914C217.322 39.4114 217.239 40.0707 217.239 40.7693ZM237.411 41.7648H232.761L232.735 39.8262H236.534C237.285 39.8262 237.909 39.752 238.407 39.6035C238.913 39.455 239.293 39.2324 239.547 38.9355C239.8 38.6385 239.926 38.2718 239.926 37.8351C239.926 37.4946 239.852 37.1976 239.704 36.9444C239.564 36.6824 239.35 36.4685 239.062 36.3025C238.774 36.1279 238.416 36.0013 237.988 35.9227C237.569 35.8353 237.075 35.7917 236.508 35.7917H233.403V48H230.98V33.8268H236.508C237.407 33.8268 238.215 33.9054 238.931 34.0626C239.656 34.2198 240.271 34.4599 240.778 34.7831C241.293 35.0974 241.686 35.4991 241.957 35.9882C242.228 36.4772 242.363 37.0536 242.363 37.7172C242.363 38.1451 242.276 38.5512 242.101 38.9355C241.926 39.3197 241.669 39.6603 241.328 39.9572C240.987 40.2541 240.568 40.4986 240.071 40.6907C239.573 40.8741 239.001 40.992 238.355 41.0444L237.411 41.7648ZM237.411 48H231.884L233.089 46.0351H237.411C238.084 46.0351 238.643 45.9522 239.088 45.7863C239.533 45.6116 239.865 45.3671 240.084 45.0527C240.311 44.7296 240.424 44.3454 240.424 43.9C240.424 43.4546 240.311 43.0748 240.084 42.7604C239.865 42.4373 239.533 42.1928 239.088 42.0268C238.643 41.8522 238.084 41.7648 237.411 41.7648H233.731L233.757 39.8262H238.355L239.232 40.5597C240.009 40.6209 240.669 40.813 241.21 41.1361C241.752 41.4592 242.162 41.8696 242.441 42.3674C242.721 42.8564 242.861 43.3891 242.861 43.9655C242.861 44.6292 242.734 45.2143 242.481 45.7208C242.236 46.2273 241.878 46.6508 241.407 46.9914C240.935 47.3232 240.363 47.5765 239.691 47.7511C239.018 47.917 238.259 48 237.411 48ZM248.31 45.1182V47.07C248.31 47.8646 248.109 48.703 247.707 49.585C247.306 50.4757 246.742 51.218 246.018 51.8118L244.642 50.8556C244.922 50.4714 245.157 50.0784 245.349 49.6767C245.542 49.2837 245.686 48.8733 245.782 48.4454C245.887 48.0262 245.939 47.5808 245.939 47.1093V45.1182H248.31ZM267.5 33.8268V35.831H260.335V33.8268H267.5ZM260.688 33.8268V48H258.265V33.8268H260.688ZM269.648 33.8268V48H267.212V33.8268H269.648ZM272.897 41.0706V40.7693C272.897 39.7476 273.045 38.8001 273.342 37.9268C273.639 37.0448 274.067 36.2807 274.626 35.6345C275.185 34.9795 275.862 34.473 276.656 34.115C277.451 33.7482 278.342 33.5648 279.328 33.5648C280.324 33.5648 281.219 33.7482 282.014 34.115C282.817 34.473 283.498 34.9795 284.057 35.6345C284.625 36.2807 285.057 37.0448 285.354 37.9268C285.651 38.8001 285.799 39.7476 285.799 40.7693V41.0706C285.799 42.0923 285.651 43.0398 285.354 43.9131C285.057 44.7864 284.625 45.5505 284.057 46.2054C283.498 46.8516 282.821 47.3581 282.027 47.7249C281.241 48.083 280.35 48.262 279.355 48.262C278.359 48.262 277.464 48.083 276.669 47.7249C275.875 47.3581 275.193 46.8516 274.626 46.2054C274.067 45.5505 273.639 44.7864 273.342 43.9131C273.045 43.0398 272.897 42.0923 272.897 41.0706ZM275.32 40.7693V41.0706C275.32 41.7779 275.403 42.446 275.569 43.0748C275.735 43.6948 275.984 44.2449 276.316 44.7252C276.656 45.2055 277.08 45.5854 277.586 45.8649C278.093 46.1356 278.682 46.2709 279.355 46.2709C280.018 46.2709 280.599 46.1356 281.097 45.8649C281.603 45.5854 282.022 45.2055 282.354 44.7252C282.686 44.2449 282.935 43.6948 283.101 43.0748C283.276 42.446 283.363 41.7779 283.363 41.0706V40.7693C283.363 40.0707 283.276 39.4114 283.101 38.7914C282.935 38.1626 282.682 37.6081 282.341 37.1278C282.009 36.6388 281.59 36.2545 281.084 35.9751C280.586 35.6956 280.001 35.5559 279.328 35.5559C278.665 35.5559 278.08 35.6956 277.573 35.9751C277.075 36.2545 276.656 36.6388 276.316 37.1278C275.984 37.6081 275.735 38.1626 275.569 38.7914C275.403 39.4114 275.32 40.0707 275.32 40.7693ZM296.986 44.7776L301.806 33.8268H304.138L297.824 48H296.148L289.86 33.8268H292.192L296.986 44.7776ZM291.484 33.8268V48H289.061V33.8268H291.484ZM302.409 48V33.8268H304.845V48H302.409ZM308.107 41.0706V40.7693C308.107 39.7476 308.255 38.8001 308.552 37.9268C308.849 37.0448 309.277 36.2807 309.836 35.6345C310.395 34.9795 311.072 34.473 311.866 34.115C312.661 33.7482 313.552 33.5648 314.539 33.5648C315.534 33.5648 316.429 33.7482 317.224 34.115C318.027 34.473 318.709 34.9795 319.267 35.6345C319.835 36.2807 320.267 37.0448 320.564 37.9268C320.861 38.8001 321.01 39.7476 321.01 40.7693V41.0706C321.01 42.0923 320.861 43.0398 320.564 43.9131C320.267 44.7864 319.835 45.5505 319.267 46.2054C318.709 46.8516 318.032 47.3581 317.237 47.7249C316.451 48.083 315.56 48.262 314.565 48.262C313.569 48.262 312.674 48.083 311.88 47.7249C311.085 47.3581 310.404 46.8516 309.836 46.2054C309.277 45.5505 308.849 44.7864 308.552 43.9131C308.255 43.0398 308.107 42.0923 308.107 41.0706ZM310.53 40.7693V41.0706C310.53 41.7779 310.613 42.446 310.779 43.0748C310.945 43.6948 311.194 44.2449 311.526 44.7252C311.866 45.2055 312.29 45.5854 312.796 45.8649C313.303 46.1356 313.892 46.2709 314.565 46.2709C315.229 46.2709 315.809 46.1356 316.307 45.8649C316.814 45.5854 317.233 45.2055 317.565 44.7252C317.896 44.2449 318.145 43.6948 318.311 43.0748C318.486 42.446 318.573 41.7779 318.573 41.0706V40.7693C318.573 40.0707 318.486 39.4114 318.311 38.7914C318.145 38.1626 317.892 37.6081 317.551 37.1278C317.22 36.6388 316.8 36.2545 316.294 35.9751C315.796 35.6956 315.211 35.5559 314.539 35.5559C313.875 35.5559 313.29 35.6956 312.783 35.9751C312.286 36.2545 311.866 36.6388 311.526 37.1278C311.194 37.6081 310.945 38.1626 310.779 38.7914C310.613 39.4114 310.53 40.0707 310.53 40.7693ZM343.75 46.0089L343.514 52.2048H341.352V48H339.505V46.0089H343.75ZM324.114 33.8268H326.537V46.0089H331.725V33.8268H334.161V46.0089H339.335V33.8268H341.758V48H324.114V33.8268ZM348.256 38.6997H352.513C353.657 38.6997 354.622 38.9005 355.408 39.3022C356.194 39.6952 356.787 40.241 357.189 40.9396C357.6 41.6295 357.805 42.4154 357.805 43.2974C357.805 43.9524 357.691 44.568 357.464 45.1444C357.237 45.712 356.897 46.2098 356.443 46.6377C355.997 47.0656 355.443 47.4018 354.779 47.6463C354.124 47.8821 353.369 48 352.513 48H346.487V33.8268H348.911V46.0089H352.513C353.211 46.0089 353.77 45.8823 354.189 45.6291C354.609 45.3758 354.91 45.0483 355.093 44.6466C355.277 44.2449 355.368 43.8258 355.368 43.3891C355.368 42.9612 355.277 42.5421 355.093 42.1316C354.91 41.7212 354.609 41.3806 354.189 41.1099C353.77 40.8305 353.211 40.6907 352.513 40.6907H348.256V38.6997ZM370.039 33.8268H372.463L372.253 39.1319C372.201 40.4768 372.048 41.6382 371.795 42.6163C371.541 43.5944 371.218 44.4283 370.825 45.1182C370.432 45.7994 369.991 46.3714 369.502 46.8342C369.022 47.297 368.524 47.6856 368.009 48H366.804L366.869 46.022L367.367 46.0089C367.655 45.6684 367.935 45.3191 368.206 44.961C368.476 44.5942 368.725 44.162 368.952 43.6642C369.179 43.1577 369.367 42.5421 369.515 41.8172C369.673 41.0837 369.773 40.1886 369.817 39.1319L370.039 33.8268ZM370.642 33.8268H379.169V48H376.746V36.0668H370.642V33.8268ZM366.254 46.0089H380.99V52.1786H378.567V48H368.677V52.1786H366.241L366.254 46.0089ZM389.557 48.262C388.57 48.262 387.675 48.0961 386.872 47.7642C386.077 47.4236 385.391 46.9477 384.815 46.3364C384.247 45.7251 383.811 45.0003 383.505 44.162C383.2 43.3236 383.047 42.4067 383.047 41.4112V40.861C383.047 39.7083 383.217 38.6822 383.558 37.7827C383.898 36.8745 384.361 36.1061 384.946 35.4773C385.531 34.8485 386.195 34.3726 386.937 34.0495C387.679 33.7264 388.448 33.5648 389.243 33.5648C390.256 33.5648 391.129 33.7395 391.862 34.0888C392.605 34.4381 393.212 34.9271 393.683 35.5559C394.155 36.1759 394.504 36.9095 394.731 37.7565C394.958 38.5949 395.072 39.5118 395.072 40.5073V41.5946H384.488V39.6166H392.648V39.4332C392.613 38.8045 392.482 38.1932 392.255 37.5993C392.037 37.0055 391.688 36.5165 391.207 36.1323C390.727 35.748 390.072 35.5559 389.243 35.5559C388.692 35.5559 388.186 35.6738 387.723 35.9096C387.26 36.1366 386.863 36.4772 386.531 36.9313C386.199 37.3854 385.942 37.9399 385.758 38.5949C385.575 39.2498 385.483 40.0052 385.483 40.861V41.4112C385.483 42.0836 385.575 42.7167 385.758 43.3105C385.95 43.8956 386.225 44.4109 386.583 44.8562C386.95 45.3016 387.391 45.6509 387.906 45.9042C388.43 46.1574 389.024 46.284 389.688 46.284C390.544 46.284 391.269 46.1094 391.862 45.7601C392.456 45.4108 392.976 44.9436 393.421 44.3585L394.888 45.5243C394.583 45.9871 394.194 46.4281 393.722 46.8473C393.251 47.2665 392.67 47.607 391.98 47.869C391.299 48.131 390.491 48.262 389.557 48.262ZM403.521 33.8268V48H401.084V33.8268H403.521ZM408.276 33.8268V35.7917H396.421V33.8268H408.276ZM413.528 41.2409H416.148L412.048 48H409.428L413.528 41.2409ZM415.559 33.8268H421.479V48H419.056V35.7917H415.559C414.869 35.7917 414.305 35.9096 413.869 36.1454C413.432 36.3724 413.113 36.6693 412.913 37.0361C412.712 37.4029 412.611 37.7827 412.611 38.1757C412.611 38.5599 412.703 38.9311 412.886 39.2891C413.07 39.6384 413.358 39.9266 413.751 40.1537C414.144 40.3807 414.65 40.4942 415.27 40.4942H419.711V42.4853H415.27C414.458 42.4853 413.738 42.3761 413.109 42.1578C412.48 41.9395 411.948 41.6382 411.511 41.254C411.074 40.861 410.742 40.4025 410.515 39.8786C410.288 39.3459 410.175 38.7695 410.175 38.1495C410.175 37.5295 410.293 36.9575 410.529 36.4335C410.773 35.9096 411.122 35.4511 411.576 35.0581C412.039 34.6652 412.603 34.3639 413.266 34.1543C413.939 33.936 414.703 33.8268 415.559 33.8268ZM433.53 44.7776L438.351 33.8268H440.683L434.369 48H432.692L426.405 33.8268H428.736L433.53 44.7776ZM428.029 33.8268V48H425.606V33.8268H428.029ZM438.954 48V33.8268H441.39V48H438.954ZM447.494 45.1182V47.07C447.494 47.8646 447.293 48.703 446.892 49.585C446.49 50.4757 445.927 51.218 445.202 51.8118L443.826 50.8556C444.106 50.4714 444.342 50.0784 444.534 49.6767C444.726 49.2837 444.87 48.8733 444.966 48.4454C445.071 48.0262 445.123 47.5808 445.123 47.1093V45.1182H447.494ZM462.204 35.5559C461.672 35.5559 461.161 35.6738 460.672 35.9096C460.191 36.1454 459.794 36.4728 459.48 36.892C459.174 37.3024 459.021 37.7784 459.021 38.3198H456.703C456.703 37.4727 456.965 36.6911 457.489 35.9751C458.013 35.2503 458.694 34.6695 459.532 34.2329C460.37 33.7875 461.261 33.5648 462.204 33.5648C463.2 33.5648 464.082 33.7526 464.85 34.1281C465.619 34.5036 466.265 35.0188 466.789 35.6738C467.322 36.3287 467.723 37.0841 467.994 37.9399C468.265 38.787 468.4 39.6865 468.4 40.6383V41.1885C468.4 42.1404 468.26 43.0442 467.981 43.9C467.71 44.7471 467.309 45.5024 466.776 46.1661C466.252 46.8211 465.606 47.3363 464.837 47.7118C464.077 48.0873 463.204 48.2751 462.217 48.2751C461.161 48.2751 460.213 48.048 459.375 47.5939C458.545 47.1398 457.89 46.5285 457.41 45.7601C456.939 44.9829 456.703 44.1096 456.703 43.1403H459.021C459.021 43.7253 459.161 44.258 459.44 44.7383C459.729 45.2099 460.113 45.5854 460.593 45.8649C461.073 46.1443 461.615 46.284 462.217 46.284C462.872 46.284 463.436 46.1356 463.907 45.8387C464.388 45.5417 464.78 45.1488 465.086 44.6597C465.392 44.1707 465.614 43.6249 465.754 43.0224C465.903 42.4111 465.977 41.7998 465.977 41.1885V40.6383C465.977 40.0183 465.903 39.407 465.754 38.8045C465.614 38.2019 465.392 37.6561 465.086 37.1671C464.789 36.678 464.401 36.2894 463.92 36.0013C463.449 35.7044 462.877 35.5559 462.204 35.5559ZM467.156 39.7869V41.7648H460.619V39.7869H467.156ZM474.308 33.8268V48H471.885V33.8268H474.308ZM483.608 33.8268L476.888 41.9482H473.496L473.129 39.8262H475.906L480.661 33.8268H483.608ZM481.001 48L475.788 41.5815L477.347 39.8262L484.08 48H481.001ZM485.259 41.0706V40.7693C485.259 39.7476 485.407 38.8001 485.704 37.9268C486.001 37.0448 486.429 36.2807 486.988 35.6345C487.547 34.9795 488.223 34.473 489.018 34.115C489.813 33.7482 490.704 33.5648 491.69 33.5648C492.686 33.5648 493.581 33.7482 494.376 34.115C495.179 34.473 495.86 34.9795 496.419 35.6345C496.987 36.2807 497.419 37.0448 497.716 37.9268C498.013 38.8001 498.161 39.7476 498.161 40.7693V41.0706C498.161 42.0923 498.013 43.0398 497.716 43.9131C497.419 44.7864 496.987 45.5505 496.419 46.2054C495.86 46.8516 495.183 47.3581 494.389 47.7249C493.603 48.083 492.712 48.262 491.717 48.262C490.721 48.262 489.826 48.083 489.031 47.7249C488.237 47.3581 487.555 46.8516 486.988 46.2054C486.429 45.5505 486.001 44.7864 485.704 43.9131C485.407 43.0398 485.259 42.0923 485.259 41.0706ZM487.682 40.7693V41.0706C487.682 41.7779 487.765 42.446 487.931 43.0748C488.097 43.6948 488.346 44.2449 488.678 44.7252C489.018 45.2055 489.442 45.5854 489.948 45.8649C490.455 46.1356 491.044 46.2709 491.717 46.2709C492.38 46.2709 492.961 46.1356 493.459 45.8649C493.965 45.5854 494.384 45.2055 494.716 44.7252C495.048 44.2449 495.297 43.6948 495.463 43.0748C495.637 42.446 495.725 41.7779 495.725 41.0706V40.7693C495.725 40.0707 495.637 39.4114 495.463 38.7914C495.297 38.1626 495.044 37.6081 494.703 37.1278C494.371 36.6388 493.952 36.2545 493.446 35.9751C492.948 35.6956 492.363 35.5559 491.69 35.5559C491.027 35.5559 490.442 35.6956 489.935 35.9751C489.437 36.2545 489.018 36.6388 488.678 37.1278C488.346 37.6081 488.097 38.1626 487.931 38.7914C487.765 39.4114 487.682 40.0707 487.682 40.7693ZM510.461 33.8268V35.831H503.61V33.8268H510.461ZM512.596 33.8268V48H510.173V33.8268H512.596ZM503.021 33.8268H505.457L505.091 40.6645C505.029 41.7212 504.929 42.6556 504.789 43.4677C504.658 44.2711 504.475 44.961 504.239 45.5374C504.012 46.1137 503.724 46.5853 503.375 46.9521C503.034 47.3101 502.624 47.5765 502.143 47.7511C501.663 47.917 501.109 48 500.48 48H499.72V45.8649L500.244 45.8256C500.619 45.7994 500.938 45.712 501.2 45.5636C501.471 45.4151 501.698 45.1968 501.881 44.9086C502.065 44.6117 502.213 44.2318 502.327 43.769C502.449 43.3062 502.541 42.756 502.602 42.1185C502.672 41.481 502.724 40.7388 502.759 39.8917L503.021 33.8268ZM515.858 41.0706V40.7693C515.858 39.7476 516.007 38.8001 516.303 37.9268C516.6 37.0448 517.028 36.2807 517.587 35.6345C518.146 34.9795 518.823 34.473 519.617 34.115C520.412 33.7482 521.303 33.5648 522.29 33.5648C523.285 33.5648 524.18 33.7482 524.975 34.115C525.778 34.473 526.46 34.9795 527.018 35.6345C527.586 36.2807 528.018 37.0448 528.315 37.9268C528.612 38.8001 528.761 39.7476 528.761 40.7693V41.0706C528.761 42.0923 528.612 43.0398 528.315 43.9131C528.018 44.7864 527.586 45.5505 527.018 46.2054C526.46 46.8516 525.783 47.3581 524.988 47.7249C524.202 48.083 523.311 48.262 522.316 48.262C521.32 48.262 520.425 48.083 519.631 47.7249C518.836 47.3581 518.155 46.8516 517.587 46.2054C517.028 45.5505 516.6 44.7864 516.303 43.9131C516.007 43.0398 515.858 42.0923 515.858 41.0706ZM518.281 40.7693V41.0706C518.281 41.7779 518.364 42.446 518.53 43.0748C518.696 43.6948 518.945 44.2449 519.277 44.7252C519.617 45.2055 520.041 45.5854 520.548 45.8649C521.054 46.1356 521.643 46.2709 522.316 46.2709C522.98 46.2709 523.56 46.1356 524.058 45.8649C524.565 45.5854 524.984 45.2055 525.316 44.7252C525.647 44.2449 525.896 43.6948 526.062 43.0748C526.237 42.446 526.324 41.7779 526.324 41.0706V40.7693C526.324 40.0707 526.237 39.4114 526.062 38.7914C525.896 38.1626 525.643 37.6081 525.302 37.1278C524.971 36.6388 524.551 36.2545 524.045 35.9751C523.547 35.6956 522.962 35.5559 522.29 35.5559C521.626 35.5559 521.041 35.6956 520.534 35.9751C520.037 36.2545 519.617 36.6388 519.277 37.1278C518.945 37.6081 518.696 38.1626 518.53 38.7914C518.364 39.4114 518.281 40.0707 518.281 40.7693ZM540.956 33.8268V35.831H534.406V48H531.983V33.8268H540.956ZM545.685 44.162L552.221 33.8268H554.657V48H552.221V37.6648L545.685 48H543.274V33.8268H545.685V44.162ZM561.417 41.2409H564.036L559.936 48H557.317L561.417 41.2409ZM563.447 33.8268H569.368V48H566.944V35.7917H563.447C562.757 35.7917 562.194 35.9096 561.757 36.1454C561.321 36.3724 561.002 36.6693 560.801 37.0361C560.6 37.4029 560.5 37.7827 560.5 38.1757C560.5 38.5599 560.591 38.9311 560.775 39.2891C560.958 39.6384 561.246 39.9266 561.639 40.1537C562.032 40.3807 562.539 40.4942 563.159 40.4942H567.599V42.4853H563.159C562.347 42.4853 561.626 42.3761 560.997 42.1578C560.369 41.9395 559.836 41.6382 559.399 41.254C558.963 40.861 558.631 40.4025 558.404 39.8786C558.177 39.3459 558.063 38.7695 558.063 38.1495C558.063 37.5295 558.181 36.9575 558.417 36.4335C558.661 35.9096 559.011 35.4511 559.465 35.0581C559.928 34.6652 560.491 34.3639 561.155 34.1543C561.827 33.936 562.591 33.8268 563.447 33.8268ZM573.311 46.7163C573.311 46.3059 573.437 45.9609 573.69 45.6815C573.952 45.3933 574.328 45.2492 574.817 45.2492C575.306 45.2492 575.677 45.3933 575.93 45.6815C576.192 45.9609 576.323 46.3059 576.323 46.7163C576.323 47.118 576.192 47.4586 575.93 47.738C575.677 48.0175 575.306 48.1572 574.817 48.1572C574.328 48.1572 573.952 48.0175 573.69 47.738C573.437 47.4586 573.311 47.118 573.311 46.7163ZM580.384 46.7163C580.384 46.3059 580.511 45.9609 580.764 45.6815C581.026 45.3933 581.401 45.2492 581.89 45.2492C582.379 45.2492 582.751 45.3933 583.004 45.6815C583.266 45.9609 583.397 46.3059 583.397 46.7163C583.397 47.118 583.266 47.4586 583.004 47.738C582.751 48.0175 582.379 48.1572 581.89 48.1572C581.401 48.1572 581.026 48.0175 580.764 47.738C580.511 47.4586 580.384 47.118 580.384 46.7163ZM587.457 46.7163C587.457 46.3059 587.584 45.9609 587.837 45.6815C588.099 45.3933 588.475 45.2492 588.964 45.2492C589.453 45.2492 589.824 45.3933 590.077 45.6815C590.339 45.9609 590.47 46.3059 590.47 46.7163C590.47 47.118 590.339 47.4586 590.077 47.738C589.824 48.0175 589.453 48.1572 588.964 48.1572C588.475 48.1572 588.099 48.0175 587.837 47.738C587.584 47.4586 587.457 47.118 587.457 46.7163Z" fill="white" fill-opacity="0.66"/>
<path d="M799.5 14C809.165 14 817 21.835 817 31.5C817 41.165 809.165 49 799.5 49C789.835 49 782 41.165 782 31.5C782 21.835 789.835 14 799.5 14ZM799.5 18.7295C792.447 18.7295 786.729 24.4472 786.729 31.5C786.729 38.5528 792.447 44.2705 799.5 44.2705C806.553 44.2705 812.271 38.5528 812.271 31.5C812.271 24.4472 806.553 18.7295 799.5 18.7295Z" fill="white"/>
<path d="M806 45.9999L810.5 42.4999L825 59.5002L818.5 64.5L806 45.9999Z" fill="white"/>
</svg>
