<svg width="296" height="73" viewBox="0 0 296 73" fill="none" xmlns="http://www.w3.org/2000/svg">
<rect width="295.59" height="73" rx="29.918" fill="#02F8B2" fill-opacity="0.21"/>
<path d="M39.4397 31.0819C40.8438 32.3875 41.5336 34.1365 41.5336 36.3289C41.5336 38.5214 40.8192 40.295 39.4151 41.6006C38.0109 42.9308 36.0402 43.6206 33.5029 43.6698V45.9362H31.0888V43.6698C28.5515 43.6206 26.5808 42.9308 25.1767 41.6006C23.7725 40.295 23.0581 38.5214 23.0581 36.3289C23.0581 31.9195 25.9896 29.1605 31.0888 29.0619V26.7956H33.5029V29.0619C36.0402 29.1112 38.0356 29.7763 39.4397 31.0819ZM26.8764 32.6092C25.8664 33.5207 25.3737 34.777 25.3737 36.3289C25.3737 37.8809 25.8664 39.1126 26.8764 40.024C27.8864 40.9355 29.3152 41.4282 31.1627 41.4528V31.2051C29.3152 31.2297 27.8864 31.6978 26.8764 32.6092ZM33.429 31.2051V41.4528C37.1487 41.3789 39.218 39.4574 39.218 36.3289C39.218 33.2004 37.1487 31.279 33.429 31.2051ZM49.9792 45.2218C48.0577 45.2218 46.5058 44.6306 45.3234 43.4235C44.1409 42.2164 43.5497 40.7138 43.5497 38.8662C43.5497 37.0187 44.1409 35.516 45.3234 34.309C46.5058 33.1019 48.0577 32.5107 49.9792 32.5107C51.876 32.5107 53.4279 33.1019 54.6103 34.309C55.7928 35.516 56.384 37.0187 56.384 38.8662C56.384 40.7138 55.7928 42.2164 54.6103 43.4235C53.4279 44.6306 51.876 45.2218 49.9792 45.2218ZM49.9792 43.1033C51.1862 43.1033 52.1962 42.6845 52.9599 41.8716C53.7235 41.0586 54.093 40.0487 54.093 38.8662C54.093 37.6838 53.7235 36.6738 52.9599 35.8609C52.1962 35.048 51.1862 34.6292 49.9792 34.6292C48.7475 34.6292 47.7621 35.048 46.9985 35.8609C46.2348 36.6738 45.8407 37.6838 45.8407 38.8662C45.8407 40.0487 46.2348 41.0586 46.9985 41.8716C47.7621 42.6845 48.7475 43.1033 49.9792 43.1033ZM65.7851 32.5107C67.5834 32.5107 69.0368 33.1019 70.1699 34.2843C71.3031 35.4667 71.8697 36.9941 71.8697 38.8662C71.8697 40.7384 71.3031 42.2657 70.1699 43.4481C69.0368 44.6306 67.5834 45.2218 65.7851 45.2218C63.8883 45.2218 62.4102 44.6306 61.4003 43.4235V50.6659H59.1093V32.7817H61.1539L61.1785 34.5799C62.1393 33.299 63.8144 32.5107 65.7851 32.5107ZM62.558 41.9208C63.3217 42.7091 64.2824 43.1033 65.4895 43.1033C66.6965 43.1033 67.6819 42.7091 68.4455 41.9208C69.2092 41.1325 69.5787 40.1226 69.5787 38.8662C69.5787 37.6099 69.2092 36.5999 68.4455 35.8116C67.6819 35.0233 66.6965 34.6292 65.4895 34.6292C64.2824 34.6292 63.3217 35.0233 62.558 35.8116C61.7944 36.5999 61.4003 37.6099 61.4003 38.8662C61.4003 40.1226 61.7944 41.1325 62.558 41.9208ZM81.5725 38.6938L86.0559 32.7817H88.3715V44.9754H86.1544V36.1811L81.7203 41.9455H81.2523L76.8428 36.1811V44.9754H74.6258V32.7817H76.966L81.5725 38.6938ZM101.825 34.5799L101.85 32.7817H103.87V44.9508H101.85L101.825 43.1525C100.791 44.532 99.2387 45.2218 97.1941 45.2218C95.3958 45.2218 93.9424 44.6306 92.8093 43.4481C91.6761 42.2657 91.1095 40.7384 91.1095 38.8662C91.1095 36.9941 91.6761 35.4667 92.8093 34.2843C93.9424 33.1019 95.3958 32.5107 97.1941 32.5107C99.2387 32.5107 100.791 33.2004 101.825 34.5799ZM94.5583 41.9208C95.3219 42.7091 96.2826 43.1033 97.4897 43.1033C98.6968 43.1033 99.6821 42.7091 100.446 41.9208C101.209 41.1325 101.579 40.1226 101.579 38.8662C101.579 37.6099 101.209 36.5999 100.446 35.8116C99.6821 35.0233 98.6968 34.6292 97.4897 34.6292C96.2826 34.6292 95.3219 35.0233 94.5583 35.8116C93.7946 36.5999 93.4005 37.6099 93.4005 38.8662C93.4005 40.1226 93.7946 41.1325 94.5583 41.9208ZM106.478 32.7817H117.219V34.9002H113.006V44.9508H110.715V34.9002H106.478V32.7817ZM130.994 38.8416L133.532 32.7817H135.995L128.309 50.6659H125.797L128.285 44.8769L123.432 32.7817H125.895L128.26 38.8416L129.566 42.3396L130.994 38.8416ZM145.743 36.4275V32.7817H148.034V44.9508H145.743V40.295C144.881 41.0586 143.772 41.4282 142.417 41.4282C141.013 41.4282 139.905 40.9847 139.042 40.0979C138.18 39.2357 137.737 38.0779 137.737 36.6738V32.7817H139.954V36.3536C139.954 38.3736 140.89 39.3835 142.738 39.3835C144.634 39.3835 145.743 38.275 145.743 36.4275ZM161.486 34.5799L161.51 32.7817H163.53V44.9508H161.51L161.486 43.1525C160.451 44.532 158.899 45.2218 156.854 45.2218C155.056 45.2218 153.603 44.6306 152.47 43.4481C151.336 42.2657 150.77 40.7384 150.77 38.8662C150.77 36.9941 151.336 35.4667 152.47 34.2843C153.603 33.1019 155.056 32.5107 156.854 32.5107C158.899 32.5107 160.451 33.2004 161.486 34.5799ZM154.219 41.9208C154.982 42.7091 155.943 43.1033 157.15 43.1033C158.357 43.1033 159.342 42.7091 160.106 41.9208C160.87 41.1325 161.239 40.1226 161.239 38.8662C161.239 37.6099 160.87 36.5999 160.106 35.8116C159.342 35.0233 158.357 34.6292 157.15 34.6292C155.943 34.6292 154.982 35.0233 154.219 35.8116C153.455 36.5999 153.061 37.6099 153.061 38.8662C153.061 40.1226 153.455 41.1325 154.219 41.9208ZM172.716 45.2218C170.794 45.2218 169.242 44.6306 168.06 43.4728C166.877 42.315 166.286 40.763 166.286 38.8662C166.286 36.9694 166.877 35.4421 168.085 34.2597C169.267 33.1019 170.794 32.5107 172.691 32.5107C174.44 32.5107 175.943 33.1265 177.248 34.3829L175.82 35.9102C175.007 35.048 173.972 34.6292 172.716 34.6292C171.509 34.6292 170.523 35.0233 169.76 35.787C168.971 36.5753 168.577 37.6099 168.577 38.8662C168.577 41.4035 170.277 43.1033 172.716 43.1033C174.021 43.1033 175.081 42.6599 175.943 41.7484L177.372 43.325C176.091 44.5813 174.539 45.2218 172.716 45.2218ZM178.576 32.7817H189.316V34.9002H185.104V44.9508H182.813V34.9002H178.576V32.7817ZM194.168 41.0833L201.262 32.7817H203.085V44.9508H200.794V39.4328L200.819 36.5999L193.798 44.9508H191.901V32.7817H194.192V37.8809L194.168 41.0833ZM210.614 32.7817H216.379V44.9508H214.063V40.8616H211.673L208.323 44.9508H205.589L209.112 40.6891C207.165 40.2211 206.057 38.7923 206.057 36.8216C206.057 34.3336 207.781 32.7817 210.614 32.7817ZM208.274 36.8216C208.274 38.1765 209.062 38.8416 210.614 38.8416H214.112V34.8263H210.614C209.112 34.8263 208.274 35.6146 208.274 36.8216Z" fill="white"/>
<path d="M248.918 33.5082L259.497 45.4754L269.262 33.5082" stroke="white" stroke-width="2.39344" stroke-linecap="round"/>
</svg>
