<svg width="244" height="189" viewBox="0 0 244 189" fill="none" xmlns="http://www.w3.org/2000/svg">
<rect width="244" height="189" rx="25" fill="#02F8B2" fill-opacity="0.21"/>
<path d="M112.538 84.7434C116.979 86.4605 119.169 89.5395 119.169 94.0395C119.169 97.8882 117.571 100.908 114.433 103.217C111.235 105.526 107.031 106.651 101.762 106.651C96.6102 106.651 92.4655 105.467 89.3866 103.039C86.2484 100.671 84.7089 97.5329 84.7089 93.5658H92.9392C92.9392 96.9408 96.7879 99.3092 102.235 99.3092C107.387 99.3092 110.821 97.1184 110.821 93.625C110.821 90.0724 107.742 88.0592 102.531 88.0592H95.13V81.5461H101.762C106.972 81.5461 110.11 79.5921 110.11 76.4539C110.11 73.3158 106.854 71.1842 101.88 71.1842C96.8471 71.1842 93.4721 73.2566 93.4721 76.5132H85.4195C85.4195 72.6645 86.8997 69.6447 89.9195 67.3355C92.9392 65.0855 96.9063 63.9605 101.939 63.9605C106.735 63.9605 110.702 65.0855 113.722 67.3355C116.742 69.6447 118.222 72.5461 118.222 76.1579C118.222 80.125 115.913 83.5 112.538 84.7434ZM152.493 84.7434C156.934 86.4605 159.125 89.5395 159.125 94.0395C159.125 97.8882 157.526 100.908 154.388 103.217C151.191 105.526 146.987 106.651 141.717 106.651C136.566 106.651 132.421 105.467 129.342 103.039C126.204 100.671 124.664 97.5329 124.664 93.5658H132.895C132.895 96.9408 136.743 99.3092 142.191 99.3092C147.342 99.3092 150.776 97.1184 150.776 93.625C150.776 90.0724 147.697 88.0592 142.487 88.0592H135.086V81.5461H141.717C146.928 81.5461 150.066 79.5921 150.066 76.4539C150.066 73.3158 146.809 71.1842 141.836 71.1842C136.803 71.1842 133.428 73.2566 133.428 76.5132H125.375C125.375 72.6645 126.855 69.6447 129.875 67.3355C132.895 65.0855 136.862 63.9605 141.895 63.9605C146.691 63.9605 150.658 65.0855 153.678 67.3355C156.697 69.6447 158.178 72.5461 158.178 76.1579C158.178 80.125 155.868 83.5 152.493 84.7434Z" fill="white"/>
<path d="M34.6071 133.895V135.209H28.771V146H27.1747V133.895H34.6071ZM45.3317 139.565V140.33C45.3317 141.239 45.2181 142.054 44.9909 142.774C44.7636 143.495 44.4366 144.107 44.0098 144.612C43.5831 145.116 43.0704 145.501 42.4718 145.767C41.8788 146.033 41.2137 146.166 40.4766 146.166C39.7616 146.166 39.1048 146.033 38.5062 145.767C37.9132 145.501 37.3977 145.116 36.9599 144.612C36.5276 144.107 36.1923 143.495 35.9539 142.774C35.7156 142.054 35.5965 141.239 35.5965 140.33V139.565C35.5965 138.656 35.7128 137.844 35.9456 137.129C36.184 136.409 36.5193 135.796 36.9516 135.292C37.3839 134.782 37.8966 134.394 38.4896 134.128C39.0882 133.862 39.745 133.729 40.4599 133.729C41.1971 133.729 41.8622 133.862 42.4552 134.128C43.0538 134.394 43.5665 134.782 43.9932 135.292C44.4255 135.796 44.7553 136.409 44.9825 137.129C45.2153 137.844 45.3317 138.656 45.3317 139.565ZM43.7438 140.33V139.549C43.7438 138.828 43.669 138.191 43.5193 137.636C43.3752 137.082 43.1619 136.617 42.8792 136.24C42.5965 135.863 42.2501 135.577 41.84 135.383C41.4354 135.19 40.9754 135.093 40.4599 135.093C39.9611 135.093 39.5094 135.19 39.1048 135.383C38.7058 135.577 38.3621 135.863 38.0739 136.24C37.7913 136.617 37.5723 137.082 37.4171 137.636C37.262 138.191 37.1844 138.828 37.1844 139.549V140.33C37.1844 141.056 37.262 141.699 37.4171 142.259C37.5723 142.813 37.794 143.281 38.0822 143.664C38.376 144.041 38.7224 144.326 39.1214 144.52C39.526 144.714 39.9777 144.811 40.4766 144.811C40.9975 144.811 41.4603 144.714 41.8649 144.52C42.2695 144.326 42.6104 144.041 42.8875 143.664C43.1702 143.281 43.3836 142.813 43.5277 142.259C43.6718 141.699 43.7438 141.056 43.7438 140.33ZM52.1988 141.253H48.9648V139.948H52.1988C52.8251 139.948 53.3322 139.848 53.7202 139.648C54.1081 139.449 54.3908 139.172 54.5682 138.817C54.7511 138.462 54.8425 138.058 54.8425 137.603C54.8425 137.188 54.7511 136.797 54.5682 136.431C54.3908 136.065 54.1081 135.771 53.7202 135.55C53.3322 135.323 52.8251 135.209 52.1988 135.209H49.3389V146H47.7344V133.895H52.1988C53.1133 133.895 53.8864 134.053 54.5183 134.369C55.1501 134.685 55.6295 135.123 55.9565 135.683C56.2835 136.237 56.447 136.872 56.447 137.587C56.447 138.363 56.2835 139.025 55.9565 139.574C55.6295 140.122 55.1501 140.541 54.5183 140.829C53.8864 141.112 53.1133 141.253 52.1988 141.253ZM67.7951 139.565V140.33C67.7951 141.239 67.6815 142.054 67.4543 142.774C67.227 143.495 66.9 144.107 66.4733 144.612C66.0465 145.116 65.5338 145.501 64.9352 145.767C64.3422 146.033 63.6771 146.166 62.94 146.166C62.225 146.166 61.5682 146.033 60.9696 145.767C60.3766 145.501 59.8612 145.116 59.4233 144.612C58.991 144.107 58.6557 143.495 58.4174 142.774C58.179 142.054 58.0599 141.239 58.0599 140.33V139.565C58.0599 138.656 58.1763 137.844 58.4091 137.129C58.6474 136.409 58.9827 135.796 59.415 135.292C59.8473 134.782 60.36 134.394 60.953 134.128C61.5516 133.862 62.2084 133.729 62.9234 133.729C63.6605 133.729 64.3256 133.862 64.9186 134.128C65.5172 134.394 66.0299 134.782 66.4566 135.292C66.889 135.796 67.2187 136.409 67.446 137.129C67.6787 137.844 67.7951 138.656 67.7951 139.565ZM66.2072 140.33V139.549C66.2072 138.828 66.1324 138.191 65.9828 137.636C65.8387 137.082 65.6253 136.617 65.3426 136.24C65.06 135.863 64.7136 135.577 64.3034 135.383C63.8988 135.19 63.4388 135.093 62.9234 135.093C62.4245 135.093 61.9728 135.19 61.5682 135.383C61.1692 135.577 60.8255 135.863 60.5373 136.24C60.2547 136.617 60.0358 137.082 59.8806 137.636C59.7254 138.191 59.6478 138.828 59.6478 139.549V140.33C59.6478 141.056 59.7254 141.699 59.8806 142.259C60.0358 142.813 60.2574 143.281 60.5457 143.664C60.8394 144.041 61.1858 144.326 61.5849 144.52C61.9895 144.714 62.4412 144.811 62.94 144.811C63.461 144.811 63.9238 144.714 64.3284 144.52C64.733 144.326 65.0738 144.041 65.3509 143.664C65.6336 143.281 65.847 142.813 65.9911 142.259C66.1352 141.699 66.2072 141.056 66.2072 140.33ZM79.4342 144.695V146H70.2726V144.695H79.4342ZM70.5303 144.695V148.976H68.9424L68.9341 144.695H70.5303ZM80.8309 144.695L80.8143 148.968H79.2264V144.695H80.8309ZM77.8629 133.895V135.209H72.5589V133.895H77.8629ZM79.243 133.895V146H77.6468V133.895H79.243ZM72.0102 133.895H73.6147L73.3653 138.767C73.332 139.499 73.2627 140.175 73.1574 140.796C73.0521 141.411 72.9219 141.973 72.7667 142.483C72.6115 142.993 72.4341 143.45 72.2346 143.855C72.0351 144.254 71.8217 144.601 71.5945 144.894C71.3672 145.182 71.1289 145.421 70.8795 145.609C70.6356 145.792 70.389 145.922 70.1396 146H69.408V144.695H69.9234C70.0675 144.54 70.231 144.315 70.4139 144.021C70.6024 143.728 70.788 143.348 70.9709 142.882C71.1594 142.411 71.3229 141.838 71.4615 141.161C71.6056 140.485 71.7025 139.687 71.7524 138.767L72.0102 133.895ZM87.3322 134.968L83.325 146H81.6872L86.3013 133.895H87.3571L87.3322 134.968ZM90.6909 146L86.6754 134.968L86.6504 133.895H87.7063L92.337 146H90.6909ZM90.483 141.519V142.833H83.6825V141.519H90.483ZM107.426 133.895V146H105.83V135.209H99.8608V146H98.2563V133.895H107.426ZM114.8 141.253H111.566V139.948H114.8C115.427 139.948 115.934 139.848 116.322 139.648C116.71 139.449 116.992 139.172 117.17 138.817C117.353 138.462 117.444 138.058 117.444 137.603C117.444 137.188 117.353 136.797 117.17 136.431C116.992 136.065 116.71 135.771 116.322 135.55C115.934 135.323 115.427 135.209 114.8 135.209H111.941V146H110.336V133.895H114.8C115.715 133.895 116.488 134.053 117.12 134.369C117.752 134.685 118.231 135.123 118.558 135.683C118.885 136.237 119.049 136.872 119.049 137.587C119.049 138.363 118.885 139.025 118.558 139.574C118.231 140.122 117.752 140.541 117.12 140.829C116.488 141.112 115.715 141.253 114.8 141.253ZM122.748 143.223L128.709 133.895H130.314V146H128.709V136.664L122.748 146H121.152V133.895H122.748V143.223ZM140.539 142.151H142.136C142.052 142.916 141.834 143.6 141.479 144.204C141.124 144.808 140.623 145.288 139.974 145.643C139.326 145.992 138.516 146.166 137.546 146.166C136.837 146.166 136.191 146.033 135.609 145.767C135.033 145.501 134.537 145.124 134.121 144.637C133.706 144.143 133.384 143.553 133.157 142.866C132.935 142.173 132.824 141.403 132.824 140.555V139.349C132.824 138.501 132.935 137.733 133.157 137.046C133.384 136.353 133.708 135.76 134.13 135.267C134.556 134.774 135.069 134.394 135.668 134.128C136.266 133.862 136.94 133.729 137.688 133.729C138.602 133.729 139.375 133.901 140.007 134.245C140.639 134.588 141.13 135.065 141.479 135.674C141.834 136.279 142.052 136.98 142.136 137.778H140.539C140.462 137.212 140.318 136.728 140.107 136.323C139.896 135.913 139.597 135.597 139.209 135.375C138.821 135.153 138.314 135.043 137.688 135.043C137.15 135.043 136.676 135.145 136.266 135.35C135.862 135.555 135.521 135.846 135.244 136.223C134.972 136.6 134.767 137.052 134.628 137.578C134.49 138.105 134.421 138.69 134.421 139.332V140.555C134.421 141.148 134.482 141.705 134.603 142.226C134.731 142.747 134.922 143.204 135.177 143.597C135.432 143.991 135.756 144.301 136.15 144.528C136.543 144.75 137.009 144.861 137.546 144.861C138.228 144.861 138.771 144.753 139.176 144.537C139.581 144.321 139.885 144.01 140.09 143.606C140.301 143.201 140.451 142.716 140.539 142.151ZM148.072 141.985L151.272 133.895H153.118L148.836 143.98C148.714 144.262 148.579 144.537 148.429 144.803C148.279 145.063 148.096 145.296 147.88 145.501C147.664 145.706 147.395 145.87 147.074 145.992C146.758 146.114 146.364 146.175 145.893 146.175C145.76 146.175 145.602 146.166 145.419 146.15C145.237 146.139 145.117 146.125 145.062 146.108L145.112 144.828C145.173 144.839 145.292 144.85 145.469 144.861C145.647 144.867 145.777 144.869 145.86 144.869C146.176 144.869 146.425 144.806 146.608 144.678C146.791 144.551 146.938 144.39 147.049 144.196C147.165 143.996 147.271 143.794 147.365 143.589L148.072 141.985ZM145.353 133.895L148.72 141.436L149.119 142.924L147.772 143.024L143.557 133.895H145.353ZM159.652 133.895V146H158.073V133.895H159.652ZM163.543 133.895V135.209H154.19V133.895H163.543ZM172.414 142.151H174.01C173.927 142.916 173.708 143.6 173.353 144.204C172.999 144.808 172.497 145.288 171.849 145.643C171.2 145.992 170.391 146.166 169.421 146.166C168.712 146.166 168.066 146.033 167.484 145.767C166.907 145.501 166.411 145.124 165.996 144.637C165.58 144.143 165.259 143.553 165.031 142.866C164.81 142.173 164.699 141.403 164.699 140.555V139.349C164.699 138.501 164.81 137.733 165.031 137.046C165.259 136.353 165.583 135.76 166.004 135.267C166.431 134.774 166.943 134.394 167.542 134.128C168.141 133.862 168.814 133.729 169.562 133.729C170.477 133.729 171.25 133.901 171.882 134.245C172.514 134.588 173.004 135.065 173.353 135.674C173.708 136.279 173.927 136.98 174.01 137.778H172.414C172.336 137.212 172.192 136.728 171.982 136.323C171.771 135.913 171.472 135.597 171.084 135.375C170.696 135.153 170.189 135.043 169.562 135.043C169.025 135.043 168.551 135.145 168.141 135.35C167.736 135.555 167.395 135.846 167.118 136.223C166.846 136.6 166.641 137.052 166.503 137.578C166.364 138.105 166.295 138.69 166.295 139.332V140.555C166.295 141.148 166.356 141.705 166.478 142.226C166.605 142.747 166.797 143.204 167.052 143.597C167.307 143.991 167.631 144.301 168.024 144.528C168.418 144.75 168.883 144.861 169.421 144.861C170.103 144.861 170.646 144.753 171.05 144.537C171.455 144.321 171.76 144.01 171.965 143.606C172.176 143.201 172.325 142.716 172.414 142.151ZM180.42 133.895V146H178.84V133.895H180.42ZM184.311 133.895V135.209H174.958V133.895H184.311ZM190.421 140.338H187.353L187.337 139.05H190.122C190.582 139.05 190.984 138.972 191.327 138.817C191.671 138.662 191.937 138.44 192.125 138.152C192.319 137.858 192.416 137.509 192.416 137.104C192.416 136.661 192.331 136.301 192.159 136.024C191.992 135.741 191.735 135.536 191.386 135.408C191.042 135.275 190.604 135.209 190.072 135.209H187.711V146H186.106V133.895H190.072C190.693 133.895 191.247 133.959 191.735 134.087C192.222 134.209 192.635 134.402 192.973 134.669C193.317 134.929 193.578 135.262 193.755 135.666C193.932 136.071 194.021 136.556 194.021 137.121C194.021 137.62 193.893 138.072 193.639 138.476C193.384 138.875 193.029 139.202 192.574 139.457C192.125 139.712 191.599 139.876 190.995 139.948L190.421 140.338ZM190.346 146H186.722L187.628 144.695H190.346C190.856 144.695 191.289 144.606 191.643 144.429C192.004 144.251 192.278 144.002 192.466 143.68C192.655 143.353 192.749 142.968 192.749 142.525C192.749 142.076 192.669 141.688 192.508 141.361C192.347 141.034 192.095 140.782 191.751 140.604C191.408 140.427 190.964 140.338 190.421 140.338H188.135L188.152 139.05H191.277L191.618 139.515C192.2 139.565 192.694 139.732 193.098 140.014C193.503 140.291 193.81 140.646 194.021 141.078C194.237 141.511 194.345 141.987 194.345 142.508C194.345 143.262 194.179 143.899 193.846 144.42C193.519 144.936 193.057 145.329 192.458 145.601C191.859 145.867 191.156 146 190.346 146ZM198.386 143.223L204.346 133.895H205.951V146H204.346V136.664L198.386 146H196.789V133.895H198.386V143.223ZM215.587 141.286H212.186L211.396 140.962C210.521 140.685 209.847 140.261 209.376 139.69C208.905 139.114 208.67 138.399 208.67 137.545C208.67 136.764 208.841 136.101 209.185 135.558C209.534 135.015 210.027 134.602 210.665 134.319C211.308 134.037 212.067 133.895 212.943 133.895H216.817V146H215.212V135.209H212.943C212.056 135.209 211.388 135.42 210.939 135.841C210.496 136.262 210.274 136.83 210.274 137.545C210.274 138.011 210.371 138.426 210.565 138.792C210.765 139.158 211.058 139.446 211.446 139.657C211.834 139.867 212.316 139.973 212.893 139.973H215.595L215.587 141.286ZM212.86 140.455L209.917 146H208.212L211.238 140.455H212.86ZM82.1943 161.253H78.9603V159.948H82.1943C82.8206 159.948 83.3278 159.848 83.7157 159.648C84.1037 159.449 84.3864 159.172 84.5637 158.817C84.7466 158.462 84.8381 158.058 84.8381 157.603C84.8381 157.188 84.7466 156.797 84.5637 156.431C84.3864 156.065 84.1037 155.771 83.7157 155.55C83.3278 155.323 82.8206 155.209 82.1943 155.209H79.3345V166H77.7299V153.895H82.1943C83.1088 153.895 83.882 154.053 84.5138 154.369C85.1457 154.685 85.6251 155.123 85.9521 155.683C86.2791 156.237 86.4426 156.872 86.4426 157.587C86.4426 158.363 86.2791 159.025 85.9521 159.574C85.6251 160.122 85.1457 160.541 84.5138 160.829C83.882 161.112 83.1088 161.253 82.1943 161.253ZM97.7907 159.565V160.33C97.7907 161.239 97.6771 162.054 97.4499 162.774C97.2226 163.495 96.8956 164.107 96.4688 164.612C96.0421 165.116 95.5294 165.501 94.9308 165.767C94.3378 166.033 93.6727 166.166 92.9356 166.166C92.2206 166.166 91.5638 166.033 90.9652 165.767C90.3722 165.501 89.8567 165.116 89.4189 164.612C88.9866 164.107 88.6513 163.495 88.4129 162.774C88.1746 162.054 88.0555 161.239 88.0555 160.33V159.565C88.0555 158.656 88.1718 157.844 88.4046 157.129C88.6429 156.409 88.9783 155.796 89.4106 155.292C89.8429 154.782 90.3556 154.394 90.9486 154.128C91.5472 153.862 92.204 153.729 92.9189 153.729C93.6561 153.729 94.3212 153.862 94.9142 154.128C95.5128 154.394 96.0255 154.782 96.4522 155.292C96.8845 155.796 97.2143 156.409 97.4415 157.129C97.6743 157.844 97.7907 158.656 97.7907 159.565ZM96.2028 160.33V159.549C96.2028 158.828 96.128 158.191 95.9783 157.636C95.8342 157.082 95.6209 156.617 95.3382 156.24C95.0555 155.863 94.7091 155.577 94.299 155.383C93.8944 155.19 93.4344 155.093 92.9189 155.093C92.4201 155.093 91.9684 155.19 91.5638 155.383C91.1648 155.577 90.8211 155.863 90.5329 156.24C90.2503 156.617 90.0313 157.082 89.8761 157.636C89.721 158.191 89.6434 158.828 89.6434 159.549V160.33C89.6434 161.056 89.721 161.699 89.8761 162.259C90.0313 162.813 90.253 163.281 90.5412 163.664C90.835 164.041 91.1814 164.326 91.5804 164.52C91.985 164.714 92.4367 164.811 92.9356 164.811C93.4565 164.811 93.9193 164.714 94.3239 164.52C94.7285 164.326 95.0694 164.041 95.3465 163.664C95.6292 163.281 95.8426 162.813 95.9867 162.259C96.1308 161.699 96.2028 161.056 96.2028 160.33ZM107.501 162.151H109.097C109.014 162.916 108.795 163.6 108.44 164.204C108.086 164.808 107.584 165.288 106.936 165.643C106.287 165.992 105.478 166.166 104.508 166.166C103.799 166.166 103.153 166.033 102.571 165.767C101.995 165.501 101.499 165.124 101.083 164.637C100.667 164.143 100.346 163.553 100.119 162.866C99.8968 162.173 99.786 161.403 99.786 160.555V159.349C99.786 158.501 99.8968 157.733 100.119 157.046C100.346 156.353 100.67 155.76 101.091 155.267C101.518 154.774 102.031 154.394 102.629 154.128C103.228 153.862 103.901 153.729 104.649 153.729C105.564 153.729 106.337 153.901 106.969 154.245C107.601 154.588 108.091 155.065 108.44 155.674C108.795 156.279 109.014 156.98 109.097 157.778H107.501C107.423 157.212 107.279 156.728 107.069 156.323C106.858 155.913 106.559 155.597 106.171 155.375C105.783 155.153 105.276 155.043 104.649 155.043C104.112 155.043 103.638 155.145 103.228 155.35C102.823 155.555 102.482 155.846 102.205 156.223C101.934 156.6 101.729 157.052 101.59 157.578C101.451 158.105 101.382 158.69 101.382 159.332V160.555C101.382 161.148 101.443 161.705 101.565 162.226C101.693 162.747 101.884 163.204 102.139 163.597C102.394 163.991 102.718 164.301 103.111 164.528C103.505 164.75 103.971 164.861 104.508 164.861C105.19 164.861 105.733 164.753 106.138 164.537C106.542 164.321 106.847 164.01 107.052 163.606C107.263 163.201 107.412 162.716 107.501 162.151ZM115.765 154.968L111.758 166H110.12L114.734 153.895H115.79L115.765 154.968ZM119.123 166L115.108 154.968L115.083 153.895H116.139L120.77 166H119.123ZM118.916 161.519V162.833H112.115V161.519H118.916ZM125.783 153.895V166H124.203V153.895H125.783ZM129.673 153.895V155.209H120.321V153.895H129.673ZM140.556 159.565V160.33C140.556 161.239 140.442 162.054 140.215 162.774C139.988 163.495 139.661 164.107 139.234 164.612C138.807 165.116 138.295 165.501 137.696 165.767C137.103 166.033 136.438 166.166 135.701 166.166C134.986 166.166 134.329 166.033 133.731 165.767C133.137 165.501 132.622 165.116 132.184 164.612C131.752 164.107 131.417 163.495 131.178 162.774C130.94 162.054 130.821 161.239 130.821 160.33V159.565C130.821 158.656 130.937 157.844 131.17 157.129C131.408 156.409 131.744 155.796 132.176 155.292C132.608 154.782 133.121 154.394 133.714 154.128C134.312 153.862 134.969 153.729 135.684 153.729C136.421 153.729 137.086 153.862 137.68 154.128C138.278 154.394 138.791 154.782 139.218 155.292C139.65 155.796 139.98 156.409 140.207 157.129C140.44 157.844 140.556 158.656 140.556 159.565ZM138.968 160.33V159.549C138.968 158.828 138.893 158.191 138.744 157.636C138.6 157.082 138.386 156.617 138.103 156.24C137.821 155.863 137.474 155.577 137.064 155.383C136.66 155.19 136.2 155.093 135.684 155.093C135.185 155.093 134.734 155.19 134.329 155.383C133.93 155.577 133.586 155.863 133.298 156.24C133.016 156.617 132.797 157.082 132.641 157.636C132.486 158.191 132.409 158.828 132.409 159.549V160.33C132.409 161.056 132.486 161.699 132.641 162.259C132.797 162.813 133.018 163.281 133.307 163.664C133.6 164.041 133.947 164.326 134.346 164.52C134.75 164.714 135.202 164.811 135.701 164.811C136.222 164.811 136.685 164.714 137.089 164.52C137.494 164.326 137.835 164.041 138.112 163.664C138.394 163.281 138.608 162.813 138.752 162.259C138.896 161.699 138.968 161.056 138.968 160.33ZM143.466 153.895H145.02L148.986 163.764L152.943 153.895H154.506L149.585 166H148.371L143.466 153.895ZM142.959 153.895H144.33L144.555 161.278V166H142.959V153.895ZM153.633 153.895H155.005V166H153.409V161.278L153.633 153.895ZM162.454 154.968L158.447 166H156.809L161.423 153.895H162.479L162.454 154.968ZM165.813 166L161.797 154.968L161.772 153.895H162.828L167.459 166H165.813ZM165.605 161.519V162.833H158.804V161.519H165.605Z" fill="white"/>
</svg>
