<svg width="86" height="78" viewBox="0 0 86 78" fill="none" xmlns="http://www.w3.org/2000/svg">
<path d="M43 75.5L42.5948 74.8913C39.7815 70.6656 38.3748 68.5527 36.5164 67.0231C34.8711 65.669 32.9753 64.653 30.9375 64.0333C28.6357 63.3333 26.0998 63.3333 21.028 63.3333H15.46C10.9236 63.3333 8.65536 63.3333 6.92268 62.4493C5.39856 61.6716 4.15942 60.4308 3.38285 58.9046C2.5 57.1695 2.5 54.8982 2.5 50.3556V15.4778C2.5 10.9351 2.5 8.66381 3.38285 6.92874C4.15942 5.40254 5.39856 4.1617 6.92268 3.38406C8.65536 2.5 10.9236 2.5 15.46 2.5H17.08C26.1529 2.5 30.6893 2.5 34.1546 4.26812C37.2029 5.8234 39.6812 8.30508 41.2343 11.3575C43 14.8276 43 19.3703 43 28.4556M43 75.5V28.4556M43 75.5L43.4052 74.8913C46.2185 70.6656 47.6252 68.5527 49.4836 67.0231C51.1289 65.669 53.0247 64.653 55.0625 64.0333C57.3643 63.3333 59.9002 63.3333 64.972 63.3333H70.54C75.0764 63.3333 77.3446 63.3333 79.0773 62.4493C80.6014 61.6716 81.8406 60.4308 82.6172 58.9046C83.5 57.1695 83.5 54.8982 83.5 50.3556V15.4778C83.5 10.9351 83.5 8.66381 82.6172 6.92874C81.8406 5.40254 80.6014 4.1617 79.0773 3.38406C77.3446 2.5 75.0764 2.5 70.54 2.5H68.92C59.8472 2.5 55.3107 2.5 51.8454 4.26812C48.7971 5.8234 46.3188 8.30508 44.7657 11.3575C43 14.8276 43 19.3703 43 28.4556" stroke="white" stroke-width="5" stroke-linecap="round" stroke-linejoin="round"/>
</svg>
